<svg width="120" height="124" viewBox="0 0 120 124" fill="none" xmlns="http://www.w3.org/2000/svg">
<path d="M74.9395 70.27V55.5917L78.5307 54.6377V65.731L76.1185 67.1237C75.4995 67.481 75.1185 68.141 75.1185 68.8558V79.2637C75.1185 80.0217 75.547 80.7148 76.2252 81.053C76.903 81.3918 77.7145 81.3175 78.3205 80.862L80.531 79.2002L82.7415 80.862C83.0947 81.1275 83.5177 81.2635 83.9437 81.2635C84.2482 81.2635 84.554 81.194 84.8367 81.0527C85.515 80.7142 85.9435 80.0215 85.9435 79.2635V68.8555C85.9435 68.141 85.5625 67.4807 84.9435 67.1235L82.5312 65.7308V53.575L82.8405 53.4927C83.717 53.26 84.327 52.4667 84.327 51.5597C84.327 50.6527 83.717 49.8595 82.8405 49.6267L53.1542 41.7412C52.8177 41.652 52.4637 41.652 52.1275 41.7412L22.4415 49.6267C21.565 49.8595 20.955 50.6527 20.955 51.5597C20.955 52.4667 21.565 53.26 22.4415 53.4927L30.3422 55.5915V70.2698C30.3422 71.2355 31.0325 72.0635 31.9827 72.237C35.4355 72.8682 38.2835 73.419 40.5717 73.8613C46.55 75.017 49.5957 75.595 52.6412 75.595C55.6867 75.595 58.7322 75.017 64.7105 73.8613C66.9987 73.4188 69.847 72.8682 73.2995 72.237C74.2492 72.0637 74.9395 71.2357 74.9395 70.27ZM81.943 75.2575L81.7325 75.0993C81.3765 74.8315 80.9537 74.6977 80.5305 74.6977C80.1072 74.6977 79.6845 74.8315 79.3285 75.0993L79.118 75.2575V70.0105L80.5302 69.1947L81.9425 70.0105V75.2575H81.943ZM52.6405 45.7437L74.5365 51.56L52.6405 57.3762L30.7447 51.56L52.6405 45.7437ZM63.9507 69.9342C52.6402 72.121 52.64 72.1205 41.3305 69.9342C39.4055 69.5622 37.086 69.114 34.3417 68.6048V56.6542L52.1272 61.3785C52.2955 61.4232 52.468 61.4455 52.6407 61.4455C52.8135 61.4455 52.986 61.4232 53.1542 61.3785L70.94 56.6542V68.6048C68.195 69.114 65.8757 69.5622 63.9507 69.9342ZM53.4487 28.3655C58.1225 28.3655 61.9247 24.5632 61.9247 19.8892C61.9247 15.2152 58.1225 11.413 53.4487 11.413C48.775 11.413 44.9727 15.2152 44.9727 19.8892C44.9727 24.5632 48.775 28.3655 53.4487 28.3655ZM53.4487 15.413C55.9167 15.413 57.9247 17.421 57.9247 19.8892C57.9247 22.3575 55.9167 24.3655 53.4487 24.3655C50.9807 24.3655 48.9727 22.3575 48.9727 19.8892C48.9727 17.421 50.9807 15.413 53.4487 15.413ZM101.564 78.4662V39.7787H102.476C104.804 39.7787 106.699 37.8842 106.699 35.5555V31.8132C106.699 31.101 106.32 30.4427 105.705 30.0845L54.4542 0.271247C53.8327 -0.0902529 53.0645 -0.0902529 52.443 0.271247L1.19274 30.0847C0.576992 30.443 0.198242 31.1012 0.198242 31.8135V35.5557C0.198242 37.8842 2.09274 39.779 4.42149 39.779H5.33274V87.665H4.33399C2.05374 87.665 0.198493 89.5202 0.198493 91.8005V95.5102C0.198493 97.7905 2.05374 99.6458 4.33399 99.6458H20.5712C22.8515 99.6458 24.7067 97.7905 24.7067 95.5102V91.8005C24.7067 89.5202 22.8515 87.665 20.5712 87.665H19.5725V39.7787H87.325V80C79.3377 83.615 73.7672 91.6605 73.7672 100.982C73.7672 113.674 84.0927 124 96.7845 124C109.476 124 119.801 113.674 119.801 100.982C119.801 89.9297 111.97 80.6727 101.564 78.4662ZM53.4487 4.31375L97.2835 29.8135H9.61399L53.4487 4.31375ZM4.19849 35.5557V33.8135H102.699V35.5557C102.699 35.6747 102.595 35.779 102.476 35.779H4.42174C4.30274 35.7787 4.19849 35.6745 4.19849 35.5557ZM20.7067 91.8005V95.5102C20.7067 95.581 20.642 95.6458 20.5712 95.6458H4.33399C4.26174 95.6458 4.19849 95.5825 4.19849 95.5102V91.8005C4.19849 91.7282 4.26174 91.665 4.33399 91.665H20.5712C20.6435 91.665 20.7067 91.7282 20.7067 91.8005ZM15.5725 87.665H9.33274V39.7787H15.5725V87.665ZM91.325 39.7787H97.5645V77.9802C97.3055 77.9715 97.0457 77.9655 96.7845 77.9655C94.904 77.9655 93.076 78.194 91.325 78.6215V39.7787ZM96.7845 120C86.2985 120 77.7672 111.469 77.7672 100.983C77.7672 90.4967 86.2985 81.9658 96.7845 81.9658C107.27 81.9658 115.801 90.4967 115.801 100.983C115.801 111.469 107.27 120 96.7845 120ZM110.055 91.0833C109.09 90.1235 107.81 89.596 106.45 89.596C106.443 89.596 106.436 89.596 106.429 89.596C105.063 89.6013 103.782 90.1383 102.822 91.108L94.0167 100.001L90.742 96.7262C89.7755 95.76 88.4902 95.2278 87.1232 95.2278C85.756 95.2278 84.471 95.76 83.5045 96.7262C82.5382 97.6927 82.006 98.9777 82.006 100.345C82.006 101.712 82.5382 102.997 83.5045 103.964L90.4117 110.871C91.4095 111.868 92.7197 112.367 94.0302 112.367C95.3407 112.367 96.651 111.868 97.649 110.871C100.273 108.247 108.543 99.858 110.079 98.308C112.061 96.308 112.05 93.0673 110.055 91.0833ZM107.238 95.4925C105.699 97.0453 97.4347 105.428 94.8205 108.042C94.3847 108.478 93.676 108.478 93.2407 108.042L86.3335 101.135C86.1225 100.924 86.0062 100.643 86.0062 100.345C86.0062 100.046 86.1225 99.7657 86.3335 99.5547C86.5445 99.3437 86.825 99.2275 87.1235 99.2275C87.422 99.2275 87.7025 99.3438 87.9135 99.555L92.6095 104.251C92.9847 104.626 93.4935 104.837 94.0237 104.837H94.0287C94.561 104.835 95.0707 104.622 95.445 104.244L105.664 93.9225C105.872 93.713 106.149 93.597 106.445 93.596H106.449C106.746 93.596 107.025 93.7107 107.235 93.9197C107.668 94.3507 107.67 95.0565 107.238 95.4925Z" fill="#262262"/>
</svg>
