<svg width="129" height="128" viewBox="0 0 129 128" fill="none" xmlns="http://www.w3.org/2000/svg">
<path d="M64.3393 94.8625C74.5075 94.8625 82.7801 86.5899 82.7801 76.4217C82.7801 66.2534 74.5075 57.9808 64.3393 57.9808C54.171 57.9808 45.8984 66.2534 45.8984 76.4217C45.8984 86.5899 54.171 94.8625 64.3393 94.8625ZM64.3393 61.7309C72.4399 61.7309 79.0303 68.3211 79.0303 76.4219C79.0303 84.5228 72.4399 91.113 64.3393 91.113C56.2387 91.113 49.6483 84.5228 49.6483 76.4219C49.6483 68.3211 56.2387 61.7309 64.3393 61.7309Z" fill="#262262"/>
<path d="M64.3392 86.5797C69.9404 86.5797 74.4969 82.0229 74.4969 76.4217C74.4969 70.8207 69.9401 66.2637 64.3392 66.2637C58.7382 66.2637 54.1814 70.8207 54.1814 76.4217C54.1811 82.0229 58.7379 86.5797 64.3392 86.5797ZM64.3392 70.0137C67.8725 70.0137 70.7471 72.8884 70.7471 76.4219C70.7471 79.9555 67.8725 82.8301 64.3392 82.8301C60.8058 82.8301 57.9312 79.9555 57.9312 76.4219C57.931 72.8884 60.8056 70.0137 64.3392 70.0137Z" fill="#262262"/>
<path d="M63.8215 78.2971H64.857C65.8925 78.2971 66.732 77.4579 66.732 76.4221C66.732 75.3866 65.8925 74.5471 64.857 74.5471H63.8215C62.786 74.5471 61.9465 75.3866 61.9465 76.4221C61.9465 77.4576 62.786 78.2971 63.8215 78.2971Z" fill="#262262"/>
<path d="M126.606 59.0721C125.989 55.9887 123.168 53.9246 120.053 54.2715L117.982 54.4903V51.9849C117.982 50.2947 117.265 48.6728 116.015 47.5351C114.765 46.3974 113.082 45.8347 111.4 45.9952L73.1158 49.6115C70.9359 47.0624 67.7086 45.559 64.3393 45.559C60.9164 45.559 57.7576 47.0274 55.5609 49.6113L17.278 45.9954C15.5949 45.8349 13.9132 46.3977 12.663 47.5354C11.4128 48.6731 10.6959 50.295 10.6959 51.9851V54.5028L8.62422 54.2728C5.50187 53.9228 2.68576 55.9832 2.06354 59.0591C2.06254 59.0641 2.06129 59.0696 2.06029 59.0748C-0.242101 70.5872 -0.242101 82.2619 2.06029 93.7744C2.06079 93.7774 2.06154 93.7801 2.06204 93.7831C2.63601 96.6362 5.09789 98.6139 7.9405 98.6139C8.16624 98.6139 8.39498 98.6014 8.62497 98.5759L14.8419 97.8847C15.8711 97.7702 16.6126 96.8432 16.4981 95.814C16.3838 94.7851 15.4551 94.0436 14.4274 94.1578L8.21049 94.8491C7.03229 94.9781 5.96985 94.2023 5.73761 93.0409C5.73711 93.0381 5.73661 93.0354 5.73586 93.0329C3.53296 82.0137 3.53271 70.8405 5.73511 59.821C5.73586 59.8168 5.73686 59.8125 5.73786 59.808C5.9701 58.6466 7.03204 57.8711 8.21049 57.9999L39.2092 61.4422C39.1007 62.4131 39.1107 63.4071 39.2545 64.4065C39.408 65.4735 38.9675 66.5372 38.1043 67.1832C35.1624 69.3853 33.475 72.7531 33.475 76.4235C33.475 80.094 35.1622 83.4619 38.104 85.6635C38.967 86.3095 39.4077 87.3737 39.2542 88.4401C39.1105 89.4391 39.1005 90.4323 39.2087 91.4027L21.9046 93.3264C20.8754 93.4409 20.1339 94.3678 20.2484 95.397C20.3549 96.3557 21.1669 97.0649 22.1096 97.0649C22.1788 97.0649 22.2488 97.0609 22.319 97.0532L39.441 95.1498L29.8627 111.724C29.2305 112.82 29.1627 114.162 29.6814 115.316C30.2002 116.469 31.2496 117.309 32.4888 117.563L41.8283 119.474C41.8703 119.483 41.9071 119.504 41.9358 119.536L48.2608 126.669C49.012 127.516 50.0942 127.997 51.2154 127.997C51.3466 127.997 51.4786 127.99 51.6104 127.977C52.8688 127.849 53.9975 127.119 54.6307 126.022L64.339 109.169L74.0485 126.024C74.681 127.119 75.8099 127.849 77.0684 127.977C77.2001 127.99 77.3319 127.997 77.4631 127.997C78.5841 127.997 79.6665 127.516 80.4175 126.669L86.7434 119.535C86.7709 119.504 86.8089 119.483 86.8502 119.474L96.1897 117.563C97.4289 117.309 98.4781 116.469 98.9968 115.316C99.5155 114.162 99.4478 112.82 98.8153 111.725L89.3513 95.3285L120.042 98.5756C120.272 98.6014 120.5 98.6136 120.726 98.6136C123.57 98.6136 126.034 96.6325 126.606 93.7756C126.607 93.7704 126.608 93.7649 126.609 93.7589C128.909 82.2507 128.908 70.5802 126.606 59.0721ZM111.753 49.7285C112.397 49.6668 113.014 49.8737 113.491 50.3087C113.969 50.7435 114.233 51.3389 114.233 51.9849V54.8865L88.3421 57.6224C87.7929 56.5224 87.0651 55.5005 86.1634 54.5985C85.2667 53.7018 84.251 52.9776 83.1583 52.4294L111.753 49.7285ZM14.4457 54.919V51.9851C14.4457 51.3392 14.7089 50.7437 15.1866 50.309C15.6646 49.8743 16.2818 49.6675 16.9253 49.7288L45.5202 52.4299C44.4275 52.9781 43.4118 53.7023 42.5151 54.5993C41.5689 55.5455 40.8119 56.6232 40.2544 57.7854L14.4457 54.919ZM37.2251 76.423C37.2251 73.9456 38.3645 71.6717 40.3512 70.1848C42.3131 68.7166 43.315 66.2975 42.966 63.8718C42.6128 61.4157 43.4148 59.0021 45.1664 57.2504C46.9181 55.4987 49.3312 54.6958 51.7884 55.05C54.2142 55.3987 56.6326 54.3965 58.1008 52.4351C59.588 50.4485 61.8616 49.3088 64.339 49.3088C66.8166 49.3088 69.0903 50.4485 70.5774 52.4351C72.0459 54.3968 74.4638 55.398 76.8901 55.05C79.347 54.6958 81.7601 55.4987 83.5116 57.2504C85.2635 59.0021 86.0657 61.4157 85.7122 63.8718C85.363 66.2975 86.3652 68.7163 88.3271 70.1845C90.3137 71.6717 91.4534 73.9456 91.4534 76.423C91.4534 78.9003 90.3137 81.1742 88.3271 82.6612C86.3652 84.1296 85.3635 86.5487 85.7122 88.9738C85.9439 90.584 85.676 92.1747 84.9725 93.5736C84.9705 93.5779 84.9682 93.5821 84.9662 93.5864C84.5973 94.3168 84.1118 94.9956 83.5116 95.5955C82.4471 96.66 81.1374 97.3717 79.7227 97.6887C79.6688 97.6982 79.6148 97.7102 79.5613 97.7244C78.6973 97.8987 77.7966 97.9267 76.8896 97.7957C74.464 97.4467 72.0456 98.4491 70.5769 100.411C69.0903 102.397 66.8164 103.537 64.3387 103.537C61.8614 103.537 59.5877 102.397 58.1006 100.411C56.8256 98.7071 54.8337 97.7274 52.7431 97.7274C52.4263 97.7274 52.1071 97.7499 51.7879 97.7957C50.8804 97.9264 49.9794 97.8982 49.115 97.7239C49.0622 97.7097 49.0095 97.6979 48.9562 97.6887C47.5411 97.3719 46.2309 96.66 45.1659 95.595C44.5692 94.9983 44.0857 94.3238 43.7178 93.5981C43.7158 93.5939 43.7133 93.5894 43.7113 93.5851C43.0033 92.1832 42.7335 90.5883 42.9658 88.9733C43.3148 86.5482 42.3128 84.1293 40.3509 82.6607C38.3645 81.1742 37.2251 78.9006 37.2251 76.423ZM33.1013 113.778C33.06 113.686 33.0978 113.621 33.1098 113.6L42.1843 97.8967C42.2931 98.0144 42.4008 98.1326 42.5151 98.2469C43.5043 99.2361 44.6365 100.02 45.8594 100.583L37.6555 114.793L33.2405 113.889C33.2163 113.884 33.1423 113.869 33.1013 113.778ZM41.5281 115.585L49.612 101.583C50.5019 101.662 51.4101 101.639 52.3221 101.508C53.1255 101.392 53.9265 101.614 54.549 102.098L45.4537 117.852L44.7412 117.048C44.1785 116.414 43.411 115.971 42.5798 115.801L41.5281 115.585ZM51.3824 124.149C51.3701 124.17 51.3324 124.236 51.2326 124.246C51.1324 124.259 51.0829 124.2 51.0664 124.181L48.0765 120.809L57.2758 104.875C58.4795 105.813 59.8512 106.495 61.3249 106.889L51.3824 124.149ZM77.6121 124.181C77.5956 124.2 77.5444 124.257 77.4459 124.246C77.3464 124.236 77.3084 124.17 77.2969 124.15L67.3474 106.878C68.8143 106.478 70.1925 105.793 71.3967 104.864L80.6022 120.809L77.6121 124.181ZM86.0982 115.8C85.2667 115.971 84.4988 116.414 83.937 117.048L83.2243 117.852L74.1293 102.098C74.7522 101.614 75.554 101.392 76.3559 101.508C77.2681 101.639 78.1763 101.662 79.066 101.583L87.1501 115.585L86.0982 115.8ZM95.5772 113.778C95.536 113.869 95.462 113.884 95.4377 113.889L91.0227 114.793L82.8188 100.583C84.0418 100.02 85.174 99.2363 86.1632 98.2471C86.2797 98.1306 86.3899 98.0102 86.5007 97.8897L95.5682 113.599C95.5807 113.621 95.6182 113.686 95.5772 113.778ZM122.93 93.0364C122.929 93.0406 122.928 93.0454 122.927 93.0504C122.691 94.2068 121.627 94.9786 120.446 94.8478L89.4498 91.5682C89.579 90.5453 89.5755 89.4956 89.4238 88.4399C89.2703 87.3732 89.7108 86.3095 90.574 85.6635C93.5158 83.4616 95.2032 80.0938 95.2032 76.4232C95.2032 72.7529 93.5161 69.385 90.574 67.1827C89.711 66.5369 89.2703 65.473 89.4238 64.4063C89.5758 63.3498 89.579 62.2994 89.4495 61.2762L120.456 57.9996C121.63 57.8689 122.696 58.6461 122.929 59.8075C125.135 70.832 125.135 82.0117 122.93 93.0364Z" fill="#262262"/>
<path d="M29.1367 41.0262H33.2783C35.4539 41.0262 37.2238 39.256 37.2238 37.0804V32.8806C37.2238 31.2437 36.5444 29.6567 35.3599 28.5268C34.6987 27.8963 33.9227 27.4371 33.0825 27.1629V22.9741L43.8277 27.7498V35.1515C43.8277 38.3908 46.4631 41.0262 49.7025 41.0262H78.976C82.2154 41.0262 84.8507 38.3908 84.8507 35.1515V27.7498L98.1163 21.8539C99.5618 21.2117 100.46 19.83 100.46 18.2483C100.46 16.6666 99.5618 15.285 98.1163 14.6427L65.9417 0.34318C64.9232 -0.109548 63.7548 -0.109798 62.7368 0.34318L44.4587 8.46678C43.5125 8.88751 43.0863 9.99521 43.5068 10.9414C43.9275 11.8879 45.0359 12.3143 45.9814 11.8934L64.2597 3.76976C64.3102 3.74726 64.368 3.74726 64.4185 3.76976L96.5932 18.0696C96.6339 18.0876 96.7097 18.1213 96.7097 18.2486C96.7097 18.3758 96.6339 18.4095 96.5932 18.4275L84.8505 23.6465V20.4437C84.8505 18.3071 83.1123 16.5689 80.9757 16.5689H47.7023C45.5657 16.5689 43.8275 18.3071 43.8275 20.4437V23.6465L32.0856 18.4278C32.0851 18.4275 32.0843 18.4273 32.0838 18.4268C32.0428 18.4085 31.9688 18.3746 31.9688 18.2486C31.9688 18.1213 32.0446 18.0876 32.0851 18.0696L38.482 15.2265C39.4282 14.8057 39.8544 13.698 39.434 12.7518C39.0135 11.8059 37.9058 11.3794 36.9593 11.7999L30.5624 14.643C29.117 15.2852 28.2193 16.6669 28.2193 18.2486C28.2193 19.3125 28.627 20.285 29.333 21.0037V27.1664C26.9166 27.9676 25.1914 30.2785 25.1914 32.9976V37.0804C25.1912 39.256 26.9611 41.0262 29.1367 41.0262ZM78.976 37.2764H49.7025C48.5308 37.2764 47.5776 36.3229 47.5776 35.1515V32.7431H81.1009V35.1515C81.1009 36.3229 80.1477 37.2764 78.976 37.2764ZM47.7026 20.3187H80.9759C81.0447 20.3187 81.1009 20.375 81.1009 20.4437V26.5602V26.5689V28.9933H47.5776V20.4437C47.5776 20.3747 47.6336 20.3187 47.7026 20.3187ZM28.941 32.9976C28.941 31.8219 29.7867 30.8119 30.8681 30.6402C30.9784 30.6605 31.0914 30.6724 31.2076 30.6724C31.3221 30.6724 31.4334 30.6604 31.5421 30.641C32.0021 30.7084 32.4283 30.9124 32.7715 31.2399C33.2245 31.6722 33.474 32.2549 33.474 32.8803V37.0801C33.474 37.1884 33.386 37.2761 33.2783 37.2761H29.1367C29.0287 37.2761 28.941 37.1881 28.941 37.0801V32.9976Z" fill="#262262"/>
</svg>
