<svg width="125" height="114" viewBox="0 0 125 114" fill="none" xmlns="http://www.w3.org/2000/svg">
<path d="M123.666 75.6704L120.16 73.646V56.7292L121.045 56.4939C121.922 56.2612 122.532 55.4679 122.532 54.5609C122.532 53.6539 121.922 52.8607 121.045 52.6279L81.8404 42.2139C81.5039 42.1247 81.1499 42.1247 80.8136 42.2139L41.6089 52.6279C40.7324 52.8607 40.1224 53.6539 40.1224 54.5609C40.1224 55.4679 40.7324 56.2612 41.6089 56.4939L52.5196 59.3922V72.2652C52.1501 72.0084 51.7851 71.7544 51.4309 71.5074C50.0504 70.5449 48.7461 69.6362 47.6231 68.9077C43.0379 65.9327 37.9811 66.727 33.6396 67.896L17.2804 72.3007L16.6254 69.7692C15.9431 67.1317 13.2416 65.5414 10.6041 66.2232L4.36964 67.8364C1.73214 68.5189 0.141636 71.2202 0.824136 73.8577L9.20464 106.244C9.53439 107.519 10.3434 108.59 11.4826 109.261C12.2551 109.716 13.1149 109.949 13.9856 109.949C14.3994 109.949 14.8154 109.896 15.2256 109.79L21.4601 108.177C24.0976 107.494 25.6881 104.793 25.0056 102.155L24.1981 99.0347L27.6674 98.1052L50.5231 111.301C53.0231 112.745 55.6871 113.474 58.3921 113.474C59.8844 113.474 61.3891 113.252 62.8854 112.806L103.676 100.627C107.507 99.4839 109.92 94.669 108.738 90.5252C108.166 88.5179 105.299 82.2404 92.4479 85.7349L70.1429 91.8027C69.2311 92.0507 68.3384 92.1832 67.4484 92.1994C67.8514 91.7624 68.2161 91.2654 68.5371 90.7092C69.7411 88.6234 69.8144 86.1727 68.9361 84.0419C74.5984 85.1172 77.9616 85.6547 81.3259 85.6547C85.3191 85.6547 89.3136 84.8972 97.1534 83.3817C100.175 82.7974 103.936 82.0707 108.495 81.2369C109.445 81.0634 110.135 80.2354 110.135 79.2697V59.3917L116.161 57.7912V73.6454L112.654 75.6699C112.035 76.0272 111.654 76.6872 111.654 77.4019V91.1469C111.654 91.9049 112.083 92.5979 112.761 92.9362C113.439 93.2749 114.25 93.2007 114.856 92.7452L118.161 90.2604L121.465 92.7452C121.818 93.0109 122.241 93.1467 122.667 93.1467C122.972 93.1467 123.278 93.0772 123.56 92.9359C124.239 92.5974 124.667 91.9047 124.667 91.1467V77.4017C124.666 76.6877 124.285 76.0274 123.666 75.6704ZM21.0296 103.869C20.9551 103.996 20.7816 104.22 20.4576 104.304L14.2231 105.917C13.8991 106.002 13.6384 105.889 13.5121 105.814C13.3854 105.74 13.1606 105.566 13.0766 105.242L4.69614 72.8557C4.56839 72.3617 4.87764 71.8367 5.37139 71.7089L11.6056 70.0957C11.6811 70.0762 11.7574 70.0669 11.8329 70.0669C12.2509 70.0669 12.6444 70.353 12.7524 70.771L21.1326 103.158C21.2166 103.482 21.1041 103.742 21.0296 103.869ZM71.1921 95.6627L93.4971 89.5949C99.7821 87.8847 104.041 88.6434 104.891 91.6224C105.473 93.6619 104.282 96.2722 102.531 96.7944L61.7406 108.973C58.5686 109.92 55.4669 109.537 52.5226 107.837L28.9494 94.2269C28.4899 93.9614 27.9441 93.8894 27.4319 94.0269L23.1954 95.1619L18.2816 76.1729L34.6789 71.7579C38.3449 70.7712 42.1869 70.1487 45.4454 72.2632C46.5129 72.9557 47.7316 73.8049 49.1429 74.7889C53.1984 77.6157 58.2374 81.1279 63.7514 83.7437C65.4681 84.9227 66.0379 87.0367 65.0721 88.7094C63.8021 90.9089 61.7356 90.6744 60.1976 90.0702C57.5226 88.7289 55.0341 87.238 52.4014 85.66C51.1491 84.9095 49.8544 84.1334 48.5159 83.3607C47.5591 82.8082 46.3361 83.1359 45.7839 84.0927C45.2316 85.0492 45.5594 86.2724 46.5159 86.8247C47.8259 87.5812 49.1064 88.3487 50.3446 89.091C53.0681 90.7235 55.6406 92.2654 58.4796 93.6844C58.4904 93.6897 60.8479 94.7522 60.8479 94.7522C64.3326 96.3102 67.7159 96.6082 71.1921 95.6627ZM106.135 77.6042C102.287 78.3157 99.0546 78.9404 96.3936 79.4547C81.3254 82.3667 81.3254 82.3667 66.2626 79.4554C65.2006 79.2499 64.0619 79.0299 62.8439 78.7964C60.6369 77.6052 58.5121 76.2907 56.5194 74.9809V60.4547L80.8136 66.9079C80.9819 66.9527 81.1544 66.9752 81.3271 66.9752C81.4999 66.9752 81.6724 66.9527 81.8406 66.9079L106.135 60.4547V77.6042H106.135ZM81.3269 62.9057L49.9124 54.5609L81.3269 46.2162L112.741 54.5609L81.3269 62.9057ZM120.666 87.1412L119.362 86.1602C119.006 85.8924 118.583 85.7587 118.16 85.7587C117.737 85.7587 117.314 85.8924 116.958 86.1602L115.653 87.1412V78.5569L118.16 77.1097L120.666 78.5572V87.1412ZM11.6641 75.7277C11.5356 76.8254 10.5416 77.6109 9.44389 77.4822C8.34639 77.3537 7.56089 76.3597 7.68939 75.2619C7.81789 74.1642 8.81189 73.3789 9.90964 73.5074C11.0074 73.6359 11.7926 74.6302 11.6641 75.7277ZM29.4009 54.2002C44.2011 54.2002 56.2421 42.1592 56.2421 27.3592C56.2421 12.5589 44.2011 0.517944 29.4009 0.517944C14.6006 0.517944 2.55989 12.5589 2.55989 27.3592C2.55964 42.1594 14.6006 54.2002 29.4009 54.2002ZM29.4009 4.51794C41.9956 4.51794 52.2421 14.7644 52.2421 27.3592C52.2421 39.9537 41.9956 50.2002 29.4009 50.2002C16.8064 50.2002 6.55989 39.9537 6.55989 27.3592C6.55964 14.7644 16.8061 4.51794 29.4009 4.51794ZM33.0946 33.4067C33.4214 33.0289 33.5364 32.6077 33.4674 32.0404C33.3486 31.0627 32.7444 29.8634 29.0941 29.2642C23.3961 28.3287 22.0644 25.3382 21.9506 22.9942C21.7949 19.7904 23.9806 17.1062 27.4009 16.2807V15.3554C27.4009 14.2509 28.2964 13.3554 29.4009 13.3554C30.5054 13.3554 31.4009 14.2509 31.4009 15.3554V16.2627C33.6194 16.7722 35.7246 18.1909 36.8294 20.8222C37.2569 21.8407 36.7781 23.0129 35.7596 23.4404C34.7406 23.8679 33.5689 23.3889 33.1414 22.3707C32.2696 20.2947 30.1344 19.7612 28.4054 20.1534C27.9779 20.2504 25.8504 20.8337 25.9459 22.7999C25.9711 23.3219 26.0384 24.7087 29.7421 25.3167C34.4396 26.0879 37.0289 28.1877 37.4381 31.5579C37.6429 33.2452 37.1871 34.7892 36.1199 36.0229C35.0416 37.2697 33.3456 38.1477 31.4009 38.5044V39.3622C31.4009 40.4667 30.5054 41.3622 29.4009 41.3622C28.2964 41.3622 27.4009 40.4667 27.4009 39.3622V38.4714C24.3899 37.8329 22.0831 35.7857 21.3749 32.9454C21.1076 31.8737 21.7599 30.7882 22.8316 30.5209C23.9041 30.2537 24.9889 30.9059 25.2561 31.9777C25.7696 34.0369 27.9216 34.7224 29.6009 34.6802C31.0621 34.6454 32.4659 34.1334 33.0946 33.4067ZM29.4009 48.3279C40.9631 48.3279 50.3696 38.9214 50.3696 27.3592C50.3696 15.7969 40.9631 6.39044 29.4009 6.39044C17.8386 6.39044 8.43214 15.7969 8.43214 27.3592C8.43214 38.9214 17.8384 48.3279 29.4009 48.3279ZM29.4009 10.3904C38.7576 10.3904 46.3696 18.0027 46.3696 27.3592C46.3696 36.7157 38.7574 44.3279 29.4009 44.3279C20.0444 44.3279 12.4321 36.7157 12.4321 27.3592C12.4319 18.0024 20.0441 10.3904 29.4009 10.3904Z" fill="#262262"/>
</svg>
