<svg width="48" height="48" viewBox="0 0 48 48" fill="none" xmlns="http://www.w3.org/2000/svg">
<rect width="48" height="48" rx="24" fill="white"/>
<path d="M28.4445 23.9999C28.4445 26.5246 26.4547 28.5713 24.0001 28.5713C21.5455 28.5713 19.5556 26.5246 19.5556 23.9999C19.5556 21.4752 21.5455 19.4285 24.0001 19.4285C26.4547 19.4285 28.4445 21.4752 28.4445 23.9999Z" stroke="#333333" stroke-width="2" stroke-linecap="round" stroke-linejoin="round"/>
<path d="M36.8701 22.5279C37.4878 23.4244 37.4878 24.5754 36.8701 25.4719C34.8538 28.3981 29.8516 34.6666 24.0001 34.6666C18.1485 34.6666 13.1463 28.3981 11.13 25.4719C10.5123 24.5754 10.5123 23.4244 11.13 22.5279C13.1463 19.6017 18.1485 13.3333 24.0001 13.3333C29.8516 13.3333 34.8538 19.6017 36.8701 22.5279Z" stroke="#333333" stroke-width="2" stroke-linecap="round" stroke-linejoin="round"/>
</svg>
