<svg width="160" height="54" viewBox="0 0 160 54" fill="none" xmlns="http://www.w3.org/2000/svg">
<g clip-path="url(#clip0_379_3452)">
<path d="M63.99 22.0701V22.4901C63.43 22.5801 62.93 22.8801 62.49 23.3901C62.17 23.7701 61.7 24.6601 61.07 26.0601L55.76 37.8301H55.39L50.11 25.5801C49.47 24.1001 49.05 23.2401 48.83 22.9801C48.61 22.7201 48.21 22.5601 47.61 22.4901V22.0701H54.99V22.4901H54.74C54.07 22.4901 53.62 22.5701 53.38 22.7401C53.21 22.8501 53.12 23.0201 53.12 23.2401C53.12 23.3801 53.15 23.5401 53.21 23.7201C53.27 23.9101 53.48 24.4001 53.82 25.2101L57.1 32.8801L60.14 26.0501C60.5 25.2201 60.73 24.6701 60.81 24.3901C60.89 24.1101 60.93 23.8701 60.93 23.6701C60.93 23.4401 60.87 23.2401 60.75 23.0701C60.63 22.9001 60.45 22.7601 60.22 22.6701C59.89 22.5401 59.46 22.4801 58.93 22.4801V22.0601H63.99V22.0701Z" fill="white"/>
<path d="M72.75 37.0501V37.4701H64.7V37.0501H65.21C65.66 37.0501 66.02 36.9701 66.29 36.8101C66.49 36.7001 66.64 36.5201 66.74 36.2601C66.82 36.0801 66.86 35.6001 66.86 34.8301V24.7001C66.86 23.9101 66.82 23.4201 66.74 23.2201C66.66 23.0201 66.49 22.8501 66.23 22.7001C65.98 22.5501 65.63 22.4801 65.2 22.4801H64.69V22.0601H72.74V22.4801H72.23C71.78 22.4801 71.42 22.5601 71.15 22.7201C70.95 22.8301 70.8 23.0101 70.68 23.2701C70.6 23.4501 70.56 23.9301 70.56 24.7001V34.8301C70.56 35.6201 70.6 36.1101 70.69 36.3101C70.78 36.5101 70.95 36.6801 71.2 36.8301C71.45 36.9801 71.8 37.0501 72.23 37.0501H72.74H72.75Z" fill="white"/>
<path d="M79.62 22.9503V29.2203H79.93C80.91 29.2203 81.62 28.9103 82.05 28.3003C82.49 27.6903 82.77 26.7803 82.89 25.5803H83.32V33.6503H82.89C82.8 32.7703 82.61 32.0503 82.32 31.4903C82.03 30.9303 81.69 30.5503 81.3 30.3603C80.91 30.1703 80.35 30.0703 79.62 30.0703V34.4103C79.62 35.2603 79.66 35.7803 79.73 35.9703C79.8 36.1603 79.94 36.3103 80.13 36.4403C80.33 36.5603 80.64 36.6203 81.08 36.6203H82C83.44 36.6203 84.59 36.2903 85.46 35.6203C86.33 34.9503 86.95 33.9403 87.33 32.5803H87.75L87.06 37.4803H73.75V37.0603H74.26C74.71 37.0603 75.07 36.9803 75.34 36.8203C75.54 36.7103 75.69 36.5303 75.79 36.2703C75.87 36.0903 75.92 35.6103 75.92 34.8403V24.7103C75.92 24.0103 75.9 23.5903 75.86 23.4303C75.78 23.1603 75.64 22.9603 75.44 22.8203C75.15 22.6103 74.76 22.5003 74.26 22.5003H73.75V22.0803H86.64V26.6403H86.21C85.99 25.5303 85.68 24.7303 85.28 24.2403C84.88 23.7603 84.32 23.4003 83.59 23.1703C83.17 23.0303 82.37 22.9703 81.2 22.9703H79.61L79.62 22.9503ZM80.1 19.0703H82.21L84.04 20.7303H83.49L81.1 19.9603L78.81 20.7303H78.28L80.1 19.0703ZM80.51 38.6303C81.04 38.6303 81.49 38.8103 81.86 39.1803C82.23 39.5503 82.41 40.0003 82.41 40.5303C82.41 41.0603 82.22 41.5003 81.85 41.8603C81.48 42.2303 81.03 42.4103 80.51 42.4103C79.99 42.4103 79.54 42.2303 79.18 41.8603C78.81 41.4903 78.63 41.0503 78.63 40.5303C78.63 40.0103 78.81 39.5603 79.18 39.1903C79.55 38.8203 79.99 38.6303 80.51 38.6303Z" fill="white"/>
<path d="M103.48 22.0703V26.2403H103.07C102.83 25.2803 102.56 24.5903 102.26 24.1703C101.97 23.7503 101.56 23.4103 101.04 23.1603C100.75 23.0203 100.25 22.9603 99.53 22.9603H98.38V34.8403C98.38 35.6303 98.42 36.1203 98.51 36.3203C98.6 36.5203 98.77 36.6903 99.02 36.8403C99.27 36.9903 99.62 37.0603 100.06 37.0603H100.57V37.4803H92.5V37.0603H93.01C93.46 37.0603 93.82 36.9803 94.09 36.8203C94.29 36.7103 94.44 36.5303 94.56 36.2703C94.64 36.0903 94.69 35.6103 94.69 34.8403V22.9603H93.58C92.54 22.9603 91.79 23.1803 91.32 23.6203C90.66 24.2303 90.24 25.1103 90.07 26.2403H89.64V22.0703H103.48Z" fill="white"/>
<path d="M118.11 33.09H112.67L112.02 34.59C111.81 35.09 111.7 35.5 111.7 35.83C111.7 36.26 111.87 36.58 112.22 36.78C112.42 36.9 112.93 36.99 113.73 37.05V37.47H108.61V37.05C109.16 36.97 109.62 36.74 109.97 36.36C110.33 35.99 110.77 35.21 111.29 34.04L116.8 21.75H117.02L122.58 34.38C123.11 35.58 123.55 36.33 123.89 36.64C124.15 36.87 124.51 37.01 124.98 37.05V37.47H117.53V37.05H117.84C118.44 37.05 118.86 36.97 119.1 36.8C119.27 36.68 119.35 36.5 119.35 36.28C119.35 36.14 119.33 36 119.28 35.86C119.27 35.79 119.15 35.51 118.94 35.01L118.12 33.09H118.11ZM117.72 32.24L115.43 26.93L113.07 32.24H117.73H117.72Z" fill="white"/>
<path d="M131.03 22.0701L138.63 31.6201V25.0001C138.63 24.0801 138.5 23.4501 138.23 23.1301C137.87 22.6901 137.26 22.4801 136.4 22.4901V22.0701H141.49V22.4901C140.84 22.5701 140.4 22.6801 140.18 22.8101C139.96 22.9401 139.78 23.1601 139.66 23.4601C139.54 23.7601 139.47 24.2701 139.47 25.0001V37.8301H139.08L128.66 25.0001V34.7901C128.66 35.6801 128.86 36.2701 129.27 36.5801C129.68 36.8901 130.14 37.0501 130.66 37.0501H131.02V37.4701H125.56V37.0501C126.41 37.0501 127 36.8701 127.33 36.5301C127.66 36.1901 127.83 35.6101 127.83 34.7901V23.9201L127.5 23.5101C127.17 23.1001 126.89 22.8301 126.64 22.7001C126.39 22.5701 126.03 22.5001 125.56 22.4801V22.0601H131.02L131.03 22.0701Z" fill="white"/>
<path d="M148.4 30.0601V34.8301C148.4 35.6201 148.44 36.1101 148.53 36.3101C148.62 36.5101 148.79 36.6801 149.04 36.8301C149.29 36.9801 149.64 37.0501 150.07 37.0501H150.58V37.4701H142.53V37.0501H143.04C143.49 37.0501 143.85 36.9701 144.12 36.8101C144.32 36.7001 144.47 36.5201 144.57 36.2601C144.65 36.0801 144.7 35.6001 144.7 34.8301V24.7001C144.7 23.9101 144.66 23.4201 144.57 23.2201C144.49 23.0201 144.32 22.8501 144.07 22.7001C143.82 22.5501 143.47 22.4801 143.04 22.4801H142.53V22.0601H150.58V22.4801H150.07C149.62 22.4801 149.26 22.5601 148.99 22.7201C148.79 22.8301 148.64 23.0101 148.52 23.2701C148.44 23.4501 148.39 23.9301 148.39 24.7001V29.0601H153.83V24.7001C153.83 23.9101 153.79 23.4201 153.7 23.2201C153.62 23.0201 153.45 22.8501 153.19 22.7001C152.93 22.5501 152.59 22.4801 152.16 22.4801H151.66V22.0601H159.7V22.4801H159.2C158.75 22.4801 158.39 22.5601 158.12 22.7201C157.92 22.8301 157.77 23.0101 157.65 23.2701C157.57 23.4501 157.53 23.9301 157.53 24.7001V34.8301C157.53 35.6201 157.57 36.1101 157.65 36.3101C157.73 36.5101 157.9 36.6801 158.16 36.8301C158.42 36.9801 158.76 37.0501 159.19 37.0501H159.69V37.4701H151.65V37.0501H152.15C152.6 37.0501 152.96 36.9701 153.23 36.8101C153.43 36.7001 153.58 36.5201 153.7 36.2601C153.78 36.0801 153.83 35.6001 153.83 34.8301V30.0601H148.39H148.4Z" fill="white"/>
<path d="M52.84 8.62035V10.2004H52.69C52.6 9.84035 52.5 9.57035 52.38 9.41035C52.27 9.25035 52.11 9.12035 51.92 9.03035C51.81 8.98035 51.62 8.95035 51.35 8.95035H50.92V13.4504C50.92 13.7504 50.94 13.9304 50.97 14.0104C51 14.0904 51.07 14.1504 51.16 14.2104C51.26 14.2704 51.39 14.2904 51.55 14.2904H51.74V14.4504H48.69V14.2904H48.88C49.05 14.2904 49.19 14.2604 49.29 14.2004C49.36 14.1604 49.42 14.0904 49.47 13.9904C49.5 13.9204 49.52 13.7404 49.52 13.4504V8.95035H49.1C48.71 8.95035 48.42 9.03035 48.24 9.20035C47.99 9.43035 47.83 9.76035 47.77 10.1904H47.61V8.61035H52.85L52.84 8.62035Z" fill="white"/>
<path d="M55.5 11.8001V13.4401C55.5 13.7601 55.52 13.9501 55.56 14.0401C55.6 14.1201 55.67 14.1901 55.76 14.2401C55.86 14.2901 56.04 14.3101 56.31 14.3101V14.4701H53.32V14.3101C53.59 14.3101 53.77 14.2801 53.87 14.2301C53.97 14.1801 54.03 14.1101 54.07 14.0301C54.11 13.9501 54.13 13.7501 54.13 13.4401V9.65012C54.13 9.33012 54.11 9.14012 54.07 9.05012C54.03 8.97012 53.96 8.90012 53.87 8.85012C53.78 8.80012 53.59 8.78012 53.32 8.78012V8.62012H56.03C56.74 8.62012 57.25 8.67012 57.58 8.77012C57.91 8.87012 58.17 9.05012 58.38 9.31012C58.59 9.57012 58.69 9.88012 58.69 10.2301C58.69 10.6601 58.54 11.0201 58.23 11.3001C58.03 11.4801 57.76 11.6101 57.4 11.7001L58.8 13.6701C58.98 13.9301 59.11 14.0801 59.19 14.1501C59.31 14.2401 59.44 14.2901 59.6 14.3001V14.4601H57.76L55.88 11.8001H55.5ZM55.5 8.94012V11.5001H55.75C56.15 11.5001 56.45 11.4601 56.64 11.3901C56.84 11.3201 56.99 11.1901 57.11 10.9901C57.22 10.8001 57.28 10.5501 57.28 10.2401C57.28 9.80012 57.18 9.47012 56.97 9.26012C56.76 9.05012 56.43 8.94012 55.97 8.94012H55.51H55.5Z" fill="white"/>
<path d="M65.62 8.78041C65.29 8.78041 65.08 8.91041 64.97 9.18041C64.93 9.28041 64.91 9.44041 64.91 9.67041V11.8904C64.91 12.6004 64.86 13.0904 64.77 13.3704C64.67 13.6804 64.45 13.9604 64.11 14.2104C63.76 14.4704 63.28 14.5904 62.68 14.5904C62.18 14.5904 61.79 14.5204 61.51 14.3904C61.14 14.2104 60.87 13.9704 60.72 13.6904C60.56 13.4004 60.49 13.0204 60.49 12.5304V9.67041C60.49 9.36041 60.47 9.15041 60.43 9.04041C60.4 8.97041 60.34 8.90041 60.24 8.85041C60.14 8.80041 59.97 8.77041 59.73 8.78041V8.62041H62.74V8.78041H62.59C62.23 8.78041 62.02 8.87041 61.94 9.05041C61.9 9.13041 61.88 9.34041 61.88 9.67041V12.5304C61.88 13.0204 61.92 13.3704 62 13.5704C62.06 13.7304 62.19 13.8704 62.39 13.9904C62.57 14.1004 62.8 14.1604 63.07 14.1604C63.7 14.1604 64.14 13.8904 64.38 13.3604C64.49 13.1104 64.54 12.6804 64.54 12.0604V9.68041C64.54 9.25041 64.44 8.99041 64.25 8.89041C64.12 8.82041 63.94 8.79041 63.7 8.79041V8.63041H65.72C65.86 8.63041 66 8.60041 66.12 8.54041C66.15 8.52041 66.18 8.49041 66.21 8.43041C66.22 8.40041 66.23 8.38041 66.21 8.36041C66.21 8.36041 66.17 8.33041 66.09 8.27041C66.01 8.22041 65.96 8.16041 65.92 8.11041C65.85 7.99041 65.84 7.87041 65.86 7.77041C65.89 7.66041 65.96 7.57041 66.09 7.50041C66.21 7.43041 66.34 7.42041 66.47 7.46041C66.74 7.54041 66.87 7.73041 66.87 8.02041C66.87 8.10041 66.86 8.18041 66.83 8.27041C66.77 8.46041 66.61 8.61041 66.37 8.70041C66.21 8.76041 65.99 8.79041 65.72 8.79041H65.6L65.62 8.78041Z" fill="white"/>
<path d="M73.08 11.5204C73.08 12.2604 72.86 12.9104 72.43 13.4704C71.86 14.2204 71.05 14.5904 70 14.5904C68.95 14.5904 68.14 14.2304 67.56 13.5204C67.11 12.9604 66.88 12.2904 66.88 11.5204C66.88 10.6504 67.18 9.93037 67.77 9.35037C68.32 8.81037 69.05 8.54037 69.94 8.54037C70.32 8.54037 70.68 8.59037 71 8.70037C71.13 8.74037 71.36 8.84037 71.7 8.99037C71.94 9.10037 72.13 9.16037 72.29 9.16037C72.46 9.16037 72.59 9.16037 72.67 9.13037C72.74 9.11037 72.79 9.06037 72.82 8.99037C72.83 8.96037 72.84 8.94037 72.82 8.92037C72.75 8.89037 72.66 8.81037 72.54 8.67037C72.47 8.55037 72.45 8.44037 72.48 8.33037C72.51 8.22037 72.58 8.12037 72.71 8.06037C72.83 7.99037 72.96 7.98037 73.09 8.02037C73.24 8.07037 73.36 8.16037 73.43 8.32037C73.5 8.47037 73.51 8.64037 73.45 8.82037C73.38 9.02037 73.23 9.17037 73.01 9.26037C72.86 9.32037 72.6 9.35037 72.21 9.35037C72.79 9.93037 73.08 10.6504 73.08 11.5104M69.99 8.81037C68.95 8.81037 68.43 9.72037 68.43 11.5504C68.43 12.5504 68.6 13.2804 68.95 13.7604C69.19 14.0904 69.54 14.2604 69.97 14.2604C70.6 14.2604 71.04 13.8904 71.3 13.1604C71.44 12.7604 71.51 12.2304 71.51 11.5904C71.51 10.2604 71.26 9.41037 70.75 9.05037C70.53 8.89037 70.27 8.81037 69.98 8.81037M68.67 6.63037H69.96L70.46 8.12037H70.09L68.66 6.63037H68.67Z" fill="white"/>
<path d="M75.59 8.62035L78.47 12.2404V9.73035C78.47 9.38035 78.42 9.14035 78.32 9.02035C78.18 8.85035 77.95 8.77035 77.63 8.78035V8.62035H79.56V8.78035C79.31 8.81035 79.15 8.85035 79.06 8.90035C78.98 8.95035 78.91 9.03035 78.86 9.15035C78.81 9.26035 78.79 9.46035 78.79 9.73035V14.5904H78.64L74.69 9.73035V13.4404C74.69 13.7804 74.77 14.0004 74.92 14.1204C75.07 14.2404 75.25 14.3004 75.45 14.3004H75.59V14.4604H73.52V14.3004C73.84 14.3004 74.06 14.2304 74.19 14.1004C74.32 13.9704 74.38 13.7504 74.38 13.4404V9.32035L74.26 9.16035C74.14 9.01035 74.03 8.90035 73.93 8.85035C73.84 8.80035 73.7 8.77035 73.52 8.77035V8.61035H75.59V8.62035Z" fill="white"/>
<path d="M85.84 8.49023V10.5502H85.68C85.49 9.99023 85.2 9.56023 84.81 9.27023C84.43 8.98023 84.01 8.83023 83.55 8.83023C83.09 8.83023 82.75 8.95023 82.46 9.20023C82.17 9.45023 81.97 9.79023 81.84 10.2302C81.72 10.6702 81.66 11.1202 81.66 11.5802C81.66 12.1402 81.73 12.6302 81.86 13.0502C81.99 13.4702 82.2 13.7802 82.5 13.9802C82.79 14.1802 83.14 14.2802 83.55 14.2802C83.69 14.2802 83.83 14.2602 83.98 14.2402C84.13 14.2102 84.28 14.1702 84.43 14.1102V12.9002C84.43 12.6702 84.41 12.5202 84.38 12.4502C84.35 12.3802 84.28 12.3202 84.18 12.2702C84.08 12.2202 83.96 12.1902 83.82 12.1902H83.67V12.0302H86.51V12.1902C86.29 12.2002 86.15 12.2302 86.06 12.2802C85.98 12.3202 85.91 12.4002 85.86 12.5002C85.83 12.5502 85.82 12.6902 85.82 12.9002V14.1102C85.45 14.2802 85.06 14.4002 84.66 14.4902C84.26 14.5702 83.84 14.6202 83.41 14.6202C82.86 14.6202 82.4 14.5402 82.03 14.3902C81.66 14.2402 81.34 14.0402 81.06 13.8002C80.78 13.5502 80.56 13.2802 80.4 12.9702C80.2 12.5702 80.1 12.1302 80.1 11.6402C80.1 10.7602 80.41 10.0202 81.02 9.42023C81.64 8.82023 82.41 8.51023 83.35 8.51023C83.64 8.51023 83.9 8.53023 84.13 8.58023C84.26 8.60023 84.46 8.67023 84.74 8.78023C85.02 8.89023 85.19 8.94023 85.24 8.94023C85.32 8.94023 85.4 8.91023 85.46 8.85023C85.53 8.79023 85.59 8.68023 85.65 8.52023H85.81L85.84 8.49023Z" fill="white"/>
<path d="M94.21 8.62035V10.2004H94.06C93.97 9.84035 93.87 9.57035 93.75 9.41035C93.64 9.25035 93.48 9.12035 93.29 9.03035C93.18 8.98035 92.99 8.95035 92.72 8.95035H92.29V13.4504C92.29 13.7504 92.31 13.9304 92.34 14.0104C92.37 14.0804 92.44 14.1504 92.53 14.2104C92.63 14.2704 92.76 14.2904 92.92 14.2904H93.11V14.4504H90.06V14.2904H90.25C90.42 14.2904 90.56 14.2604 90.66 14.2004C90.73 14.1604 90.79 14.0904 90.84 13.9904C90.87 13.9204 90.89 13.7404 90.89 13.4504V8.95035H90.47C90.08 8.95035 89.79 9.03035 89.61 9.20035C89.36 9.43035 89.2 9.76035 89.14 10.1904H88.98V8.61035H94.22L94.21 8.62035Z" fill="white"/>
<path d="M96.94 11.6501V13.4601C96.94 13.7601 96.96 13.9401 96.99 14.0201C97.02 14.0901 97.09 14.1601 97.18 14.2201C97.28 14.2801 97.41 14.3001 97.57 14.3001H97.76V14.4601H94.71V14.3001H94.9C95.07 14.3001 95.21 14.2701 95.31 14.2101C95.38 14.1701 95.44 14.1001 95.48 14.0001C95.51 13.9301 95.53 13.7501 95.53 13.4601V9.62012C95.53 9.32012 95.51 9.14012 95.48 9.06012C95.45 8.99012 95.38 8.92012 95.29 8.86012C95.19 8.80012 95.06 8.78012 94.9 8.78012H94.71V8.62012H97.76V8.78012H97.57C97.4 8.78012 97.26 8.81012 97.16 8.87012C97.09 8.91012 97.03 8.98012 96.98 9.08012C96.95 9.15012 96.93 9.33012 96.93 9.62012V11.2701H98.99V9.62012C98.99 9.32012 98.97 9.14012 98.94 9.06012C98.91 8.99012 98.84 8.92012 98.75 8.86012C98.65 8.80012 98.52 8.78012 98.36 8.78012H98.17V8.62012H101.22V8.78012H101.03C100.86 8.78012 100.72 8.81012 100.62 8.87012C100.55 8.91012 100.49 8.98012 100.44 9.08012C100.41 9.15012 100.39 9.33012 100.39 9.62012V13.4601C100.39 13.7601 100.41 13.9401 100.44 14.0201C100.47 14.0901 100.54 14.1601 100.63 14.2201C100.73 14.2801 100.86 14.3001 101.02 14.3001H101.21V14.4601H98.16V14.3001H98.35C98.52 14.3001 98.66 14.2701 98.76 14.2101C98.83 14.1701 98.89 14.1001 98.94 14.0001C98.97 13.9301 98.99 13.7501 98.99 13.4601V11.6501H96.93H96.94Z" fill="white"/>
<path d="M112.45 8.62035V10.2004H112.3C112.21 9.84035 112.11 9.57035 111.99 9.41035C111.88 9.25035 111.72 9.12035 111.53 9.03035C111.42 8.98035 111.23 8.95035 110.96 8.95035H110.53V13.4504C110.53 13.7504 110.55 13.9304 110.58 14.0104C110.61 14.0804 110.68 14.1504 110.77 14.2104C110.87 14.2704 111 14.2904 111.16 14.2904H111.35V14.4504H108.3V14.2904H108.49C108.66 14.2904 108.8 14.2604 108.9 14.2004C108.97 14.1604 109.03 14.0904 109.08 13.9904C109.11 13.9204 109.13 13.7404 109.13 13.4504V8.95035H108.71C108.32 8.95035 108.03 9.03035 107.85 9.20035C107.6 9.43035 107.44 9.76035 107.38 10.1904H107.22V8.61035H112.46L112.45 8.62035Z" fill="white"/>
<path d="M115.18 11.6501V13.4601C115.18 13.7601 115.2 13.9401 115.23 14.0201C115.26 14.0901 115.33 14.1601 115.42 14.2201C115.52 14.2801 115.65 14.3001 115.81 14.3001H116V14.4601H112.95V14.3001H113.14C113.31 14.3001 113.45 14.2701 113.55 14.2101C113.62 14.1701 113.68 14.1001 113.72 14.0001C113.75 13.9301 113.77 13.7501 113.77 13.4601V9.62012C113.77 9.32012 113.75 9.14012 113.72 9.06012C113.69 8.99012 113.62 8.92012 113.53 8.86012C113.43 8.80012 113.3 8.78012 113.14 8.78012H112.95V8.62012H116V8.78012H115.81C115.64 8.78012 115.5 8.81012 115.4 8.87012C115.33 8.91012 115.27 8.98012 115.22 9.08012C115.19 9.15012 115.17 9.33012 115.17 9.62012V11.2701H117.23V9.62012C117.23 9.32012 117.21 9.14012 117.18 9.06012C117.15 8.99012 117.08 8.92012 116.99 8.86012C116.89 8.80012 116.76 8.78012 116.6 8.78012H116.41V8.62012H119.46V8.78012H119.27C119.1 8.78012 118.96 8.81012 118.86 8.87012C118.79 8.91012 118.73 8.98012 118.68 9.08012C118.65 9.15012 118.63 9.33012 118.63 9.62012V13.4601C118.63 13.7601 118.65 13.9401 118.68 14.0201C118.71 14.0901 118.78 14.1601 118.87 14.2201C118.97 14.2801 119.1 14.3001 119.26 14.3001H119.45V14.4601H116.4V14.3001H116.59C116.76 14.3001 116.9 14.2701 117 14.2101C117.07 14.1701 117.13 14.1001 117.18 14.0001C117.21 13.9301 117.23 13.7501 117.23 13.4601V11.6501H115.17H115.18Z" fill="white"/>
<path d="M125.5 8.3501V10.3701H125.33C125.2 9.8401 124.97 9.4401 124.62 9.1601C124.28 8.8801 123.89 8.7401 123.45 8.7401C123.09 8.7401 122.75 8.8401 122.45 9.0501C122.15 9.2601 121.92 9.5301 121.78 9.8701C121.6 10.3001 121.51 10.7901 121.51 11.3201C121.51 11.8501 121.58 12.3201 121.71 12.7501C121.84 13.1801 122.05 13.5001 122.33 13.7201C122.61 13.9401 122.98 14.0501 123.42 14.0501C123.79 14.0501 124.12 13.9701 124.43 13.8101C124.74 13.6501 125.06 13.3701 125.4 12.9801V13.4801C125.07 13.8201 124.73 14.0701 124.38 14.2201C124.03 14.3701 123.61 14.4501 123.14 14.4501C122.52 14.4501 121.96 14.3301 121.48 14.0801C121 13.8301 120.62 13.4701 120.36 13.0001C120.1 12.5301 119.97 12.0401 119.97 11.5101C119.97 10.9501 120.12 10.4301 120.41 9.9301C120.7 9.4301 121.09 9.0401 121.59 8.7701C122.08 8.4901 122.61 8.3601 123.17 8.3601C123.58 8.3601 124.01 8.4501 124.47 8.6301C124.73 8.7301 124.9 8.7801 124.97 8.7801C125.06 8.7801 125.14 8.7501 125.21 8.6801C125.28 8.6101 125.32 8.5101 125.34 8.3601H125.51L125.5 8.3501Z" fill="white"/>
<path d="M130.13 8.35031L130.18 10.2903H130C129.92 9.80031 129.71 9.41031 129.39 9.11031C129.06 8.81031 128.71 8.66031 128.33 8.66031C128.04 8.66031 127.81 8.74031 127.64 8.89031C127.47 9.05031 127.38 9.23031 127.38 9.43031C127.38 9.56031 127.41 9.67031 127.47 9.77031C127.55 9.90031 127.69 10.0403 127.87 10.1703C128 10.2603 128.32 10.4303 128.8 10.6703C129.48 11.0103 129.94 11.3203 130.18 11.6203C130.42 11.9203 130.53 12.2603 130.53 12.6403C130.53 13.1303 130.34 13.5503 129.96 13.9003C129.58 14.2503 129.1 14.4303 128.51 14.4303C128.33 14.4303 128.15 14.4103 127.99 14.3703C127.83 14.3303 127.62 14.2603 127.37 14.1603C127.23 14.1003 127.12 14.0703 127.03 14.0703C126.96 14.0703 126.88 14.1003 126.79 14.1603C126.71 14.2203 126.64 14.3003 126.59 14.4203H126.43V12.2203H126.59C126.72 12.8403 126.96 13.3103 127.32 13.6403C127.68 13.9703 128.07 14.1303 128.48 14.1303C128.8 14.1303 129.06 14.0403 129.25 13.8703C129.44 13.7003 129.54 13.4903 129.54 13.2603C129.54 13.1203 129.5 12.9903 129.43 12.8603C129.36 12.7303 129.25 12.6103 129.1 12.4903C128.95 12.3703 128.69 12.2203 128.31 12.0403C127.78 11.7803 127.4 11.5603 127.17 11.3703C126.94 11.1903 126.76 10.9803 126.63 10.7503C126.51 10.5203 126.44 10.2703 126.44 10.0003C126.44 9.54031 126.61 9.14031 126.95 8.81031C127.29 8.48031 127.72 8.32031 128.24 8.32031C128.43 8.32031 128.61 8.34031 128.79 8.39031C128.92 8.42031 129.09 8.49031 129.28 8.58031C129.47 8.67031 129.61 8.72031 129.69 8.72031C129.77 8.72031 129.82 8.70031 129.87 8.65031C129.91 8.60031 129.95 8.49031 129.99 8.32031H130.12L130.13 8.35031Z" fill="white"/>
<path d="M141.6 8.62035V10.2004H141.45C141.36 9.84035 141.26 9.57035 141.14 9.41035C141.03 9.25035 140.87 9.12035 140.68 9.03035C140.57 8.98035 140.38 8.95035 140.11 8.95035H139.68V13.4504C139.68 13.7504 139.7 13.9304 139.73 14.0104C139.76 14.0804 139.83 14.1504 139.92 14.2104C140.02 14.2704 140.15 14.2904 140.31 14.2904H140.5V14.4504H137.45V14.2904H137.64C137.81 14.2904 137.95 14.2604 138.05 14.2004C138.12 14.1604 138.18 14.0904 138.23 13.9904C138.26 13.9204 138.28 13.7404 138.28 13.4504V8.95035H137.86C137.47 8.95035 137.18 9.03035 137 9.20035C136.75 9.43035 136.59 9.76035 136.53 10.1904H136.37V8.61035H141.61L141.6 8.62035Z" fill="white"/>
<path d="M144.33 11.6501V13.4601C144.33 13.7601 144.35 13.9401 144.38 14.0201C144.41 14.0901 144.48 14.1601 144.57 14.2201C144.67 14.2801 144.8 14.3001 144.96 14.3001H145.15V14.4601H142.1V14.3001H142.29C142.46 14.3001 142.6 14.2701 142.7 14.2101C142.77 14.1701 142.83 14.1001 142.87 14.0001C142.9 13.9301 142.92 13.7501 142.92 13.4601V9.62012C142.92 9.32012 142.9 9.14012 142.87 9.06012C142.84 8.99012 142.77 8.92012 142.68 8.86012C142.58 8.80012 142.45 8.78012 142.29 8.78012H142.1V8.62012H145.15V8.78012H144.96C144.79 8.78012 144.65 8.81012 144.55 8.87012C144.48 8.91012 144.42 8.98012 144.37 9.08012C144.34 9.15012 144.32 9.33012 144.32 9.62012V11.2701H146.38V9.62012C146.38 9.32012 146.36 9.14012 146.33 9.06012C146.3 8.99012 146.23 8.92012 146.14 8.86012C146.04 8.80012 145.91 8.78012 145.75 8.78012H145.56V8.62012H148.61V8.78012H148.42C148.25 8.78012 148.11 8.81012 148.01 8.87012C147.94 8.91012 147.88 8.98012 147.83 9.08012C147.8 9.15012 147.78 9.33012 147.78 9.62012V13.4601C147.78 13.7601 147.8 13.9401 147.83 14.0201C147.86 14.0901 147.93 14.1601 148.02 14.2201C148.12 14.2801 148.25 14.3001 148.41 14.3001H148.6V14.4601H145.55V14.3001H145.74C145.91 14.3001 146.05 14.2701 146.15 14.2101C146.22 14.1701 146.28 14.1001 146.33 14.0001C146.36 13.9301 146.38 13.7501 146.38 13.4601V11.6501H144.32H144.33Z" fill="white"/>
<path d="M151.15 11.8104V13.4304C151.15 13.7504 151.17 13.9404 151.21 14.0304C151.25 14.1104 151.32 14.1804 151.42 14.2304C151.52 14.2804 151.7 14.3004 151.96 14.3004V14.4604H149V14.3004C149.27 14.3004 149.45 14.2704 149.55 14.2204C149.65 14.1704 149.71 14.1004 149.75 14.0204C149.79 13.9404 149.81 13.7404 149.81 13.4304V9.64035C149.81 9.32035 149.79 9.13035 149.75 9.04035C149.71 8.96035 149.64 8.89035 149.55 8.84035C149.45 8.79035 149.27 8.77035 149 8.77035V8.61035H151.54C152.38 8.61035 152.98 8.76035 153.34 9.06035C153.7 9.36035 153.89 9.73035 153.89 10.1804C153.89 10.5604 153.77 10.8804 153.54 11.1504C153.31 11.4204 152.98 11.6004 152.57 11.7004C152.29 11.7704 151.82 11.8004 151.16 11.8004M151.15 8.96035V11.4804C151.24 11.4804 151.32 11.4804 151.37 11.4804C151.72 11.4804 151.99 11.3804 152.18 11.1704C152.37 10.9604 152.46 10.6404 152.46 10.2004C152.46 9.76035 152.37 9.45035 152.18 9.25035C151.99 9.05035 151.71 8.95035 151.33 8.95035H151.15V8.96035Z" fill="white"/>
<path d="M159.71 8.62035V10.2004H159.56C159.47 9.84035 159.37 9.57035 159.25 9.41035C159.14 9.25035 158.98 9.12035 158.79 9.03035C158.68 8.98035 158.49 8.95035 158.22 8.95035H157.79V13.4504C157.79 13.7504 157.81 13.9304 157.84 14.0104C157.87 14.0804 157.94 14.1504 158.03 14.2104C158.13 14.2704 158.26 14.2904 158.42 14.2904H158.61V14.4504H155.56V14.2904H155.75C155.92 14.2904 156.06 14.2604 156.16 14.2004C156.23 14.1604 156.29 14.0904 156.34 13.9904C156.37 13.9204 156.39 13.7404 156.39 13.4504V8.95035H155.97C155.58 8.95035 155.29 9.03035 155.11 9.20035C154.86 9.43035 154.7 9.76035 154.64 10.1904H154.48V8.61035H159.72L159.71 8.62035Z" fill="white"/>
<path d="M134.56 11.1104V11.9604H132.5V11.1104H134.56Z" fill="white"/>
<path d="M104.93 11.1104V11.9604H102.87V11.1104H104.93Z" fill="white"/>
<path d="M0 52.0499V51.8999H0.18C0.34 51.8999 0.46 51.8799 0.54 51.8299C0.62 51.7799 0.69 51.7099 0.73 51.6299C0.76 51.5699 0.77 51.3999 0.77 51.1199V49.3299H0V49.0299H0.77V47.5399C0.77 47.2599 0.75 47.0899 0.72 47.0199C0.69 46.9499 0.63 46.8899 0.54 46.8399C0.45 46.7899 0.33 46.7599 0.18 46.7599H0V46.6099H2.44C3.09 46.6099 3.61 46.6999 4.01 46.8799C4.49 47.0999 4.86 47.4199 5.11 47.8599C5.36 48.2999 5.48 48.7899 5.48 49.3499C5.48 49.7299 5.42 50.0799 5.3 50.4099C5.18 50.7299 5.02 50.9999 4.82 51.2099C4.62 51.4199 4.4 51.5899 4.14 51.7099C3.88 51.8399 3.57 51.9399 3.2 52.0099C3.04 52.0399 2.78 52.0599 2.43 52.0599H0V52.0499ZM2.08 46.9199V49.0299H3.28V49.3299H2.07V51.1599C2.07 51.3799 2.08 51.5199 2.11 51.5699C2.13 51.6199 2.17 51.6599 2.21 51.6899C2.28 51.7299 2.39 51.7499 2.52 51.7499C2.97 51.7499 3.31 51.5999 3.55 51.2899C3.87 50.8799 4.03 50.2399 4.03 49.3699C4.03 48.6699 3.92 48.1099 3.7 47.6999C3.53 47.3699 3.31 47.1499 3.03 47.0299C2.84 46.9499 2.52 46.9099 2.07 46.9099" fill="white"/>
<path d="M9.20998 50.5H7.28998L7.05998 51.03C6.98998 51.21 6.94998 51.35 6.94998 51.47C6.94998 51.62 7.00998 51.73 7.12998 51.81C7.19998 51.85 7.37998 51.88 7.65998 51.91V52.06H5.84998V51.91C6.03998 51.88 6.20998 51.8 6.32998 51.67C6.45998 51.54 6.60998 51.26 6.79998 50.85L8.74998 46.51H8.82998L10.79 50.97C10.98 51.39 11.13 51.66 11.25 51.77C11.34 51.85 11.47 51.9 11.64 51.91V52.06H9.00998V51.91H9.11998C9.32998 51.91 9.47998 51.88 9.56998 51.82C9.62998 51.78 9.65998 51.72 9.65998 51.63C9.65998 51.58 9.65998 51.53 9.63998 51.48C9.63998 51.46 9.58998 51.36 9.51998 51.18L9.22998 50.5H9.20998ZM9.07998 50.21L8.26998 48.34L7.43998 50.21H9.07998ZM7.52998 44.75H8.73998L9.19998 46.14H8.85998L7.52998 44.75Z" fill="white"/>
<path d="M14.9 46.53C15.77 46.5 16.47 46.75 17.01 47.29C17.55 47.83 17.82 48.5 17.82 49.31C17.82 50 17.62 50.61 17.21 51.13C16.68 51.83 15.92 52.17 14.94 52.17C13.96 52.17 13.2 51.84 12.67 51.17C12.25 50.65 12.04 50.02 12.04 49.3C12.04 48.49 12.32 47.82 12.86 47.28C13.41 46.74 14.09 46.49 14.89 46.52M14.95 46.79C14.45 46.79 14.07 47.04 13.81 47.55C13.6 47.97 13.49 48.57 13.49 49.35C13.49 50.28 13.65 50.97 13.98 51.41C14.21 51.72 14.53 51.88 14.93 51.88C15.21 51.88 15.44 51.81 15.62 51.68C15.86 51.51 16.04 51.23 16.17 50.86C16.3 50.48 16.37 49.99 16.37 49.39C16.37 48.67 16.3 48.13 16.17 47.78C16.04 47.42 15.87 47.17 15.66 47.02C15.45 46.87 15.21 46.8 14.94 46.8" fill="white"/>
<path d="M25.21 46.6099V48.0799H25.07C24.98 47.7399 24.89 47.4999 24.78 47.3499C24.68 47.1999 24.53 47.0799 24.35 46.9999C24.25 46.9499 24.07 46.9299 23.82 46.9299H23.41V51.1299C23.41 51.4099 23.43 51.5799 23.46 51.6499C23.49 51.7199 23.55 51.7799 23.64 51.8299C23.73 51.8799 23.85 51.9099 24.01 51.9099H24.19V52.0599H21.34V51.9099H21.52C21.68 51.9099 21.8 51.8799 21.9 51.8299C21.97 51.7899 22.02 51.7299 22.06 51.6399C22.09 51.5799 22.1 51.4099 22.1 51.1299V46.9299H21.71C21.34 46.9299 21.08 47.0099 20.91 47.1599C20.68 47.3799 20.53 47.6899 20.47 48.0899H20.32V46.6199H25.21V46.6099Z" fill="white"/>
<path d="M28.92 50.4998H27L26.77 51.0298C26.69 51.2098 26.66 51.3498 26.66 51.4698C26.66 51.6198 26.72 51.7298 26.84 51.8098C26.91 51.8498 27.09 51.8798 27.37 51.9098V52.0598H25.56V51.9098C25.76 51.8798 25.92 51.7998 26.04 51.6698C26.17 51.5398 26.32 51.2598 26.51 50.8498L28.46 46.5098H28.54L30.5 50.9698C30.69 51.3898 30.84 51.6598 30.96 51.7698C31.05 51.8498 31.18 51.8998 31.35 51.9098V52.0598H28.72V51.9098H28.83C29.04 51.9098 29.19 51.8798 29.28 51.8198C29.34 51.7798 29.37 51.7198 29.37 51.6298C29.37 51.5798 29.37 51.5298 29.35 51.4798C29.35 51.4598 29.3 51.3598 29.23 51.1798L28.94 50.4998H28.92ZM28.79 50.2098L27.98 48.3398L27.15 50.2098H28.79ZM28.22 52.4598C28.41 52.4598 28.57 52.5198 28.7 52.6498C28.83 52.7798 28.89 52.9398 28.89 53.1298C28.89 53.3198 28.82 53.4698 28.69 53.5998C28.56 53.7298 28.4 53.7898 28.22 53.7898C28.04 53.7898 27.88 53.7298 27.75 53.5998C27.62 53.4698 27.56 53.3098 27.56 53.1298C27.56 52.9498 27.62 52.7898 27.75 52.6598C27.88 52.5298 28.04 52.4598 28.22 52.4598Z" fill="white"/>
<path d="M34.61 46.53C35.48 46.5 36.18 46.75 36.72 47.29C37.26 47.83 37.53 48.5 37.53 49.31C37.53 50 37.33 50.61 36.92 51.13C36.38 51.83 35.63 52.17 34.65 52.17C33.67 52.17 32.91 51.84 32.38 51.17C31.96 50.65 31.75 50.02 31.75 49.3C31.75 48.49 32.03 47.82 32.57 47.28C33.12 46.74 33.8 46.49 34.6 46.52M34.66 46.79C34.16 46.79 33.78 47.04 33.52 47.55C33.31 47.97 33.2 48.57 33.2 49.35C33.2 50.28 33.36 50.97 33.69 51.41C33.92 51.72 34.24 51.88 34.64 51.88C34.91 51.88 35.15 51.81 35.33 51.68C35.56 51.51 35.75 51.23 35.88 50.86C36.01 50.48 36.08 49.99 36.08 49.39C36.08 48.67 36.01 48.13 35.88 47.78C35.75 47.42 35.58 47.17 35.37 47.02C35.16 46.87 34.92 46.8 34.65 46.8" fill="white"/>
<path d="M42.13 49.4399V51.1199C42.13 51.3999 42.14 51.5699 42.18 51.6399C42.21 51.7099 42.27 51.7699 42.36 51.8199C42.45 51.8699 42.57 51.8999 42.72 51.8999H42.9V52.0499H40.06V51.8999H40.24C40.4 51.8999 40.52 51.8699 40.62 51.8199C40.69 51.7799 40.74 51.7199 40.78 51.6299C40.81 51.5699 40.82 51.3999 40.82 51.1199V47.5399C40.82 47.2599 40.81 47.0899 40.78 47.0199C40.75 46.9499 40.69 46.8899 40.6 46.8399C40.51 46.7899 40.39 46.7599 40.24 46.7599H40.06V46.6099H42.9V46.7599H42.72C42.56 46.7599 42.44 46.7899 42.34 46.8399C42.27 46.8799 42.22 46.9399 42.18 47.0299C42.15 47.0899 42.14 47.2599 42.14 47.5399V49.0799H44.06V47.5399C44.06 47.2599 44.04 47.0899 44.02 47.0199C43.99 46.9499 43.93 46.8899 43.84 46.8399C43.75 46.7899 43.63 46.7599 43.47 46.7599H43.29V46.6099H46.13V46.7599H45.95C45.79 46.7599 45.66 46.7899 45.57 46.8399C45.5 46.8799 45.44 46.9399 45.4 47.0299C45.37 47.0899 45.36 47.2599 45.36 47.5399V51.1199C45.36 51.3999 45.37 51.5699 45.4 51.6399C45.43 51.7099 45.49 51.7699 45.58 51.8199C45.67 51.8699 45.79 51.8999 45.94 51.8999H46.12V52.0499H43.28V51.8999H43.46C43.62 51.8999 43.75 51.8699 43.84 51.8199C43.91 51.7799 43.97 51.7199 44 51.6299C44.03 51.5699 44.04 51.3999 44.04 51.1199V49.4399H42.12H42.13Z" fill="white"/>
<path d="M49.45 46.53C50.32 46.5 51.02 46.75 51.56 47.29C52.1 47.83 52.37 48.5 52.37 49.31C52.37 50 52.17 50.61 51.76 51.13C51.23 51.83 50.47 52.17 49.49 52.17C48.51 52.17 47.75 51.84 47.22 51.17C46.8 50.65 46.59 50.02 46.59 49.3C46.59 48.49 46.86 47.82 47.41 47.28C47.96 46.74 48.64 46.49 49.44 46.52M49.5 46.79C49 46.79 48.62 47.04 48.36 47.55C48.15 47.97 48.04 48.57 48.04 49.35C48.04 50.28 48.2 50.96 48.53 51.41C48.76 51.72 49.08 51.87 49.48 51.87C49.76 51.87 49.99 51.8 50.17 51.67C50.41 51.5 50.59 51.23 50.72 50.85C50.85 50.47 50.92 49.98 50.92 49.38C50.92 48.66 50.85 48.12 50.72 47.77C50.59 47.41 50.42 47.16 50.21 47.01C50 46.86 49.76 46.79 49.49 46.79M49.47 52.46C49.66 52.46 49.82 52.52 49.94 52.65C50.07 52.78 50.13 52.94 50.13 53.13C50.13 53.32 50.06 53.47 49.93 53.6C49.8 53.73 49.64 53.79 49.46 53.79C49.28 53.79 49.12 53.73 48.99 53.6C48.86 53.47 48.8 53.31 48.8 53.13C48.8 52.95 48.86 52.79 48.99 52.66C49.12 52.53 49.28 52.46 49.46 52.46" fill="white"/>
<path d="M58.15 46.4897V48.3797H57.99C57.87 47.8897 57.65 47.5097 57.33 47.2497C57.01 46.9897 56.64 46.8597 56.24 46.8597C55.9 46.8597 55.59 46.9597 55.3 47.1497C55.02 47.3497 54.81 47.5997 54.68 47.9197C54.51 48.3197 54.43 48.7697 54.43 49.2697C54.43 49.7697 54.49 50.1997 54.61 50.5997C54.73 50.9997 54.93 51.2997 55.19 51.5097C55.45 51.7197 55.79 51.8197 56.21 51.8197C56.55 51.8197 56.87 51.7497 57.15 51.5997C57.43 51.4497 57.73 51.1897 58.05 50.8297V51.2997C57.74 51.6197 57.43 51.8497 57.1 51.9897C56.77 52.1297 56.38 52.1997 55.94 52.1997C55.36 52.1997 54.84 52.0797 54.39 51.8497C53.94 51.6197 53.59 51.2797 53.35 50.8497C53.1 50.4097 52.98 49.9497 52.98 49.4597C52.98 48.9397 53.12 48.4497 53.39 47.9797C53.66 47.5097 54.03 47.1497 54.49 46.8997C54.95 46.6397 55.44 46.5097 55.96 46.5097C56.34 46.5097 56.75 46.5897 57.17 46.7597C57.42 46.8597 57.57 46.8997 57.64 46.8997C57.73 46.8997 57.8 46.8697 57.86 46.8097C57.92 46.7497 57.96 46.6497 57.98 46.5097H58.14L58.15 46.4897Z" fill="white"/>
<path d="M64.52 46.4902L64.56 48.3002H64.4C64.32 47.8502 64.13 47.4802 63.83 47.2002C63.53 46.9202 63.2 46.7802 62.85 46.7802C62.58 46.7802 62.36 46.8502 62.2 47.0002C62.04 47.1502 61.96 47.3102 61.96 47.5002C61.96 47.6202 61.99 47.7302 62.04 47.8202C62.12 47.9502 62.24 48.0702 62.41 48.1902C62.54 48.2802 62.83 48.4302 63.28 48.6602C63.92 48.9702 64.35 49.2702 64.57 49.5502C64.79 49.8302 64.9 50.1502 64.9 50.5002C64.9 50.9502 64.72 51.3502 64.37 51.6702C64.02 52.0002 63.57 52.1602 63.02 52.1602C62.85 52.1602 62.69 52.1402 62.54 52.1102C62.39 52.0802 62.2 52.0102 61.97 51.9102C61.84 51.8602 61.74 51.8302 61.65 51.8302C61.58 51.8302 61.51 51.8602 61.43 51.9102C61.35 51.9602 61.29 52.0402 61.24 52.1502H61.09V50.1002H61.24C61.36 50.6802 61.58 51.1202 61.92 51.4202C62.26 51.7202 62.62 51.8802 63.01 51.8802C63.31 51.8802 63.55 51.8002 63.73 51.6302C63.91 51.4702 64 51.2802 64 51.0602C64 50.9302 63.97 50.8102 63.9 50.6902C63.83 50.5702 63.73 50.4502 63.59 50.3502C63.45 50.2402 63.2 50.1002 62.85 49.9302C62.36 49.6902 62 49.4802 61.78 49.3102C61.56 49.1402 61.4 48.9502 61.28 48.7402C61.16 48.5302 61.11 48.3002 61.11 48.0402C61.11 47.6102 61.27 47.2402 61.59 46.9302C61.91 46.6202 62.31 46.4702 62.79 46.4702C62.97 46.4702 63.14 46.4902 63.3 46.5302C63.43 46.5602 63.58 46.6202 63.76 46.7102C63.94 46.8002 64.07 46.8402 64.14 46.8402C64.21 46.8402 64.26 46.8202 64.3 46.7802C64.34 46.7402 64.38 46.6302 64.41 46.4702H64.53L64.52 46.4902Z" fill="white"/>
<path d="M68.24 51.8999V52.0499H65.39V51.8999H65.57C65.73 51.8999 65.85 51.8699 65.95 51.8199C66.02 51.7799 66.07 51.7199 66.11 51.6299C66.14 51.5699 66.15 51.3999 66.15 51.1199V47.5399C66.15 47.2599 66.14 47.0899 66.11 47.0199C66.08 46.9499 66.02 46.8899 65.93 46.8399C65.84 46.7899 65.72 46.7599 65.57 46.7599H65.39V46.6099H68.24V46.7599H68.06C67.9 46.7599 67.78 46.7899 67.68 46.8399C67.61 46.8799 67.55 46.9399 67.52 47.0299C67.49 47.0899 67.48 47.2599 67.48 47.5399V51.1199C67.48 51.3999 67.5 51.5699 67.53 51.6399C67.56 51.7099 67.62 51.7699 67.71 51.8199C67.8 51.8699 67.92 51.8999 68.07 51.8999H68.25H68.24Z" fill="white"/>
<path d="M70.47 46.6099L73.15 49.9799V47.6399C73.15 47.3099 73.1 47.0899 73.01 46.9799C72.88 46.8299 72.67 46.7499 72.36 46.7599V46.6099H74.16V46.7599C73.93 46.7899 73.78 46.8299 73.7 46.8699C73.62 46.9199 73.56 46.9899 73.51 47.0999C73.47 47.2099 73.44 47.3899 73.44 47.6399V52.1699H73.3L69.62 47.6399V51.0999C69.62 51.4099 69.69 51.6199 69.83 51.7299C69.97 51.8399 70.14 51.8899 70.32 51.8899H70.45V52.0399H68.52V51.8899C68.82 51.8899 69.03 51.8299 69.15 51.7099C69.27 51.5899 69.33 51.3799 69.33 51.0999V47.2599L69.21 47.1199C69.1 46.9799 68.99 46.8799 68.91 46.8399C68.82 46.7899 68.69 46.7699 68.53 46.7599V46.6099H70.46H70.47Z" fill="white"/>
<path d="M76.61 49.4399V51.1199C76.61 51.3999 76.62 51.5699 76.66 51.6399C76.69 51.7099 76.75 51.7699 76.84 51.8199C76.93 51.8699 77.05 51.8999 77.2 51.8999H77.38V52.0499H74.54V51.8999H74.72C74.88 51.8999 75 51.8699 75.1 51.8199C75.17 51.7799 75.22 51.7199 75.26 51.6299C75.29 51.5699 75.3 51.3999 75.3 51.1199V47.5399C75.3 47.2599 75.29 47.0899 75.26 47.0199C75.23 46.9499 75.17 46.8899 75.08 46.8399C74.99 46.7899 74.87 46.7599 74.72 46.7599H74.54V46.6099H77.38V46.7599H77.2C77.04 46.7599 76.92 46.7899 76.82 46.8399C76.75 46.8799 76.7 46.9399 76.66 47.0299C76.63 47.0899 76.62 47.2599 76.62 47.5399V49.0799H78.54V47.5399C78.54 47.2599 78.53 47.0899 78.5 47.0199C78.47 46.9499 78.41 46.8899 78.32 46.8399C78.23 46.7899 78.11 46.7599 77.96 46.7599H77.78V46.6099H80.62V46.7599H80.44C80.28 46.7599 80.15 46.7899 80.06 46.8399C79.99 46.8799 79.94 46.9399 79.9 47.0299C79.87 47.0899 79.86 47.2599 79.86 47.5399V51.1199C79.86 51.3999 79.87 51.5699 79.9 51.6399C79.93 51.7099 79.99 51.7699 80.08 51.8199C80.17 51.8699 80.29 51.8999 80.45 51.8999H80.63V52.0499H77.79V51.8999H77.97C78.13 51.8999 78.26 51.8699 78.35 51.8199C78.42 51.7799 78.47 51.7199 78.51 51.6299C78.54 51.5699 78.55 51.3999 78.55 51.1199V49.4399H76.63H76.61Z" fill="white"/>
<path d="M88.47 46.4897V48.4097H88.32C88.14 47.8897 87.87 47.4897 87.51 47.2097C87.15 46.9397 86.76 46.7997 86.33 46.7997C85.9 46.7997 85.59 46.9097 85.32 47.1397C85.05 47.3697 84.86 47.6897 84.75 48.0997C84.64 48.5097 84.58 48.9297 84.58 49.3597C84.58 49.8797 84.64 50.3397 84.76 50.7297C84.88 51.1197 85.08 51.4097 85.36 51.5997C85.63 51.7797 85.96 51.8797 86.34 51.8797C86.47 51.8797 86.61 51.8697 86.74 51.8397C86.88 51.8097 87.02 51.7697 87.16 51.7197V50.5897C87.16 50.3797 87.15 50.2397 87.12 50.1797C87.09 50.1197 87.03 50.0597 86.94 50.0097C86.85 49.9597 86.74 49.9297 86.61 49.9297H86.47V49.7797H89.11V49.9297C88.91 49.9397 88.77 49.9697 88.69 50.0097C88.61 50.0497 88.55 50.1197 88.51 50.2197C88.49 50.2697 88.47 50.3997 88.47 50.5897V51.7197C88.12 51.8797 87.76 51.9897 87.39 52.0697C87.01 52.1497 86.62 52.1897 86.22 52.1897C85.7 52.1897 85.28 52.1197 84.93 51.9797C84.59 51.8397 84.29 51.6597 84.03 51.4297C83.77 51.1997 83.57 50.9397 83.42 50.6597C83.23 50.2897 83.14 49.8797 83.14 49.4197C83.14 48.5997 83.43 47.9097 84 47.3497C84.57 46.7897 85.3 46.4997 86.17 46.4997C86.44 46.4997 86.68 46.5197 86.9 46.5597C87.02 46.5797 87.21 46.6397 87.47 46.7397C87.73 46.8397 87.89 46.8897 87.94 46.8897C88.01 46.8897 88.08 46.8597 88.15 46.8097C88.22 46.7497 88.27 46.6497 88.33 46.4997H88.48L88.47 46.4897Z" fill="white"/>
<path d="M92.21 51.8999V52.0499H89.37V51.8999H89.55C89.71 51.8999 89.83 51.8699 89.93 51.8199C90 51.7799 90.05 51.7199 90.09 51.6299C90.12 51.5699 90.13 51.3999 90.13 51.1199V47.5399C90.13 47.2599 90.12 47.0899 90.09 47.0199C90.06 46.9499 90 46.8899 89.91 46.8399C89.82 46.7899 89.7 46.7599 89.55 46.7599H89.37V46.6099H92.21V46.7599H92.03C91.87 46.7599 91.75 46.7899 91.65 46.8399C91.58 46.8799 91.53 46.9399 91.49 47.0299C91.46 47.0899 91.45 47.2599 91.45 47.5399V51.1199C91.45 51.3999 91.47 51.5699 91.5 51.6399C91.53 51.7099 91.59 51.7699 91.68 51.8199C91.77 51.8699 91.89 51.8999 92.04 51.8999H92.22H92.21Z" fill="white"/>
<path d="M95.57 46.53C96.44 46.5 97.14 46.75 97.68 47.29C98.22 47.83 98.49 48.5 98.49 49.31C98.49 50 98.29 50.61 97.88 51.13C97.34 51.83 96.59 52.17 95.61 52.17C94.63 52.17 93.87 51.84 93.34 51.17C92.92 50.65 92.71 50.02 92.71 49.3C92.71 48.49 92.99 47.82 93.53 47.28C94.08 46.74 94.76 46.49 95.56 46.52M95.62 46.79C95.12 46.79 94.74 47.04 94.48 47.55C94.27 47.97 94.16 48.57 94.16 49.35C94.16 50.28 94.32 50.96 94.65 51.41C94.88 51.72 95.2 51.87 95.6 51.87C95.88 51.87 96.11 51.8 96.29 51.67C96.53 51.5 96.71 51.22 96.84 50.85C96.97 50.47 97.04 49.98 97.04 49.38C97.04 48.66 96.97 48.12 96.84 47.77C96.71 47.41 96.54 47.16 96.33 47.01C96.12 46.86 95.88 46.79 95.61 46.79M96.14 45.58C95.92 45.71 95.78 45.8 95.74 45.85C95.69 45.9 95.66 45.98 95.65 46.1H95.43C95.45 45.87 95.55 45.67 95.71 45.51C95.83 45.39 95.89 45.28 95.89 45.17C95.89 44.97 95.76 44.87 95.49 44.87C95.4 44.87 95.32 44.88 95.25 44.91C95.19 44.94 95.15 44.96 95.15 44.99C95.15 45.01 95.17 45.05 95.22 45.09C95.27 45.14 95.29 45.17 95.29 45.2C95.29 45.29 95.21 45.34 95.05 45.34C94.94 45.34 94.86 45.32 94.79 45.28C94.73 45.24 94.69 45.18 94.69 45.11C94.69 45 94.77 44.91 94.94 44.84C95.11 44.77 95.32 44.73 95.58 44.73C95.91 44.73 96.16 44.78 96.33 44.89C96.45 44.97 96.51 45.05 96.51 45.15C96.51 45.29 96.38 45.43 96.13 45.58" fill="white"/>
<path d="M101.79 51.8999V52.0499H98.95V51.8999H99.13C99.29 51.8999 99.41 51.8699 99.51 51.8199C99.58 51.7799 99.63 51.7199 99.67 51.6299C99.7 51.5699 99.71 51.3999 99.71 51.1199V47.5399C99.71 47.2599 99.7 47.0899 99.67 47.0199C99.64 46.9499 99.58 46.8899 99.49 46.8399C99.4 46.7899 99.28 46.7599 99.13 46.7599H98.95V46.6099H101.79V46.7599H101.61C101.45 46.7599 101.33 46.7899 101.23 46.8399C101.16 46.8799 101.11 46.9399 101.07 47.0299C101.04 47.0899 101.03 47.2599 101.03 47.5399V51.1199C101.03 51.3999 101.04 51.5699 101.08 51.6399C101.11 51.7099 101.17 51.7699 101.26 51.8199C101.35 51.8699 101.47 51.8999 101.62 51.8999H101.8H101.79Z" fill="white"/>
<path d="M109.52 46.4897V48.3797H109.36C109.24 47.8897 109.02 47.5097 108.7 47.2497C108.38 46.9897 108.01 46.8597 107.61 46.8597C107.27 46.8597 106.96 46.9597 106.68 47.1497C106.4 47.3497 106.19 47.5997 106.06 47.9197C105.89 48.3197 105.81 48.7697 105.81 49.2697C105.81 49.7697 105.87 50.1997 105.99 50.5997C106.11 50.9997 106.31 51.2997 106.57 51.5097C106.83 51.7197 107.17 51.8197 107.59 51.8197C107.93 51.8197 108.25 51.7497 108.53 51.5997C108.81 51.4497 109.11 51.1897 109.43 50.8297V51.2997C109.13 51.6197 108.81 51.8497 108.48 51.9897C108.15 52.1297 107.76 52.1997 107.32 52.1997C106.74 52.1997 106.22 52.0797 105.77 51.8497C105.32 51.6197 104.97 51.2797 104.73 50.8497C104.49 50.4097 104.36 49.9497 104.36 49.4597C104.36 48.9397 104.5 48.4497 104.77 47.9797C105.04 47.5097 105.41 47.1497 105.87 46.8997C106.33 46.6397 106.82 46.5097 107.34 46.5097C107.72 46.5097 108.13 46.5897 108.55 46.7597C108.8 46.8597 108.95 46.8997 109.02 46.8997C109.1 46.8997 109.18 46.8697 109.24 46.8097C109.3 46.7497 109.34 46.6497 109.36 46.5097H109.52V46.4897Z" fill="white"/>
<path d="M112.22 49.4399V51.1199C112.22 51.3999 112.23 51.5699 112.27 51.6399C112.3 51.7099 112.36 51.7699 112.45 51.8199C112.54 51.8699 112.66 51.8999 112.81 51.8999H112.99V52.0499H110.15V51.8999H110.33C110.49 51.8999 110.61 51.8699 110.71 51.8199C110.78 51.7799 110.83 51.7199 110.87 51.6299C110.9 51.5699 110.91 51.3999 110.91 51.1199V47.5399C110.91 47.2599 110.9 47.0899 110.87 47.0199C110.84 46.9499 110.78 46.8899 110.69 46.8399C110.6 46.7899 110.48 46.7599 110.33 46.7599H110.15V46.6099H112.99V46.7599H112.81C112.65 46.7599 112.53 46.7899 112.43 46.8399C112.36 46.8799 112.31 46.9399 112.27 47.0299C112.24 47.0899 112.23 47.2599 112.23 47.5399V49.0799H114.15V47.5399C114.15 47.2599 114.13 47.0899 114.11 47.0199C114.08 46.9499 114.02 46.8899 113.93 46.8399C113.84 46.7899 113.72 46.7599 113.56 46.7599H113.38V46.6099H116.22V46.7599H116.04C115.88 46.7599 115.75 46.7899 115.66 46.8399C115.59 46.8799 115.53 46.9399 115.49 47.0299C115.46 47.0899 115.45 47.2599 115.45 47.5399V51.1199C115.45 51.3999 115.46 51.5699 115.49 51.6399C115.52 51.7099 115.58 51.7699 115.67 51.8199C115.76 51.8699 115.88 51.8999 116.04 51.8999H116.22V52.0499H113.38V51.8999H113.56C113.72 51.8999 113.85 51.8699 113.94 51.8199C114.01 51.7799 114.07 51.7199 114.1 51.6299C114.13 51.5699 114.14 51.3999 114.14 51.1199V49.4399H112.22Z" fill="white"/>
<path d="M116.55 46.6101H119.36V46.7601H119.22C119.01 46.7601 118.86 46.7801 118.78 46.8301C118.7 46.8701 118.64 46.9301 118.61 47.0101C118.58 47.0901 118.56 47.2801 118.56 47.5901V50.2501C118.56 50.7401 118.6 51.0601 118.67 51.2201C118.74 51.3801 118.86 51.5101 119.03 51.6101C119.2 51.7101 119.41 51.7701 119.67 51.7701C119.96 51.7701 120.21 51.7001 120.42 51.5701C120.63 51.4401 120.78 51.2601 120.89 51.0201C120.99 50.7901 121.04 50.3801 121.04 49.8001V47.5801C121.04 47.3401 121.01 47.1601 120.96 47.0601C120.91 46.9601 120.84 46.8801 120.77 46.8401C120.65 46.7801 120.48 46.7501 120.26 46.7501V46.6001H122.14V46.7501H122.03C121.88 46.7501 121.75 46.7801 121.65 46.8401C121.55 46.9001 121.47 46.9901 121.43 47.1201C121.4 47.2101 121.38 47.3601 121.38 47.5801V49.6501C121.38 50.2901 121.34 50.7501 121.25 51.0301C121.17 51.3101 120.96 51.5701 120.63 51.8101C120.3 52.0501 119.86 52.1701 119.29 52.1701C118.82 52.1701 118.46 52.1101 118.2 51.9801C117.85 51.8101 117.6 51.5901 117.46 51.3201C117.32 51.0501 117.24 50.6901 117.24 50.2401V47.5801C117.24 47.2701 117.22 47.0701 117.19 47.0001C117.16 46.9201 117.1 46.8601 117.01 46.8201C116.92 46.7701 116.77 46.7501 116.54 46.7601V46.6101H116.55Z" fill="white"/>
<path d="M128.14 46.6099V46.7599C127.96 46.7799 127.82 46.8399 127.73 46.9199C127.6 47.0299 127.39 47.3399 127.1 47.8399L125.92 49.8099V51.1299C125.92 51.4099 125.93 51.5899 125.96 51.6499C125.99 51.7199 126.05 51.7799 126.14 51.8299C126.23 51.8799 126.34 51.9099 126.49 51.9099H126.8V52.0599H123.75V51.9099H124.03C124.19 51.9099 124.32 51.8799 124.41 51.8299C124.48 51.7899 124.53 51.7299 124.57 51.6399C124.6 51.5799 124.61 51.4099 124.61 51.1299V50.0399L123.33 47.7099C123.08 47.2499 122.9 46.9799 122.79 46.8999C122.69 46.8199 122.55 46.7799 122.37 46.7699V46.6199H124.98V46.7699H124.86C124.7 46.7699 124.59 46.7899 124.53 46.8399C124.47 46.8899 124.44 46.9299 124.44 46.9799C124.44 47.0799 124.55 47.3199 124.76 47.7099L125.74 49.5099L126.72 47.8699C126.96 47.4699 127.08 47.1999 127.08 47.0699C127.08 46.9999 127.05 46.9399 126.98 46.8899C126.89 46.8199 126.72 46.7799 126.48 46.7699V46.6199H128.14V46.6099Z" fill="white"/>
<path d="M130.47 46.9197V49.1297H130.58C130.92 49.1297 131.18 49.0197 131.33 48.8097C131.49 48.5897 131.58 48.2697 131.63 47.8497H131.78V50.6997H131.63C131.6 50.3897 131.53 50.1397 131.43 49.9397C131.33 49.7397 131.21 49.6097 131.07 49.5397C130.93 49.4697 130.74 49.4397 130.48 49.4397V50.9697C130.48 51.2697 130.49 51.4497 130.52 51.5197C130.55 51.5897 130.59 51.6397 130.66 51.6797C130.73 51.7197 130.84 51.7397 131 51.7397H131.32C131.83 51.7397 132.24 51.6197 132.54 51.3897C132.85 51.1497 133.07 50.7997 133.2 50.3097H133.35L133.11 52.0397H128.41V51.8897H128.59C128.75 51.8897 128.87 51.8597 128.97 51.8097C129.04 51.7697 129.09 51.7097 129.13 51.6197C129.16 51.5597 129.17 51.3897 129.17 51.1097V47.5297C129.17 47.2797 129.17 47.1297 129.15 47.0797C129.12 46.9897 129.07 46.9097 129 46.8597C128.9 46.7797 128.76 46.7497 128.58 46.7497H128.4V46.5997H132.95V48.2097H132.8C132.72 47.8197 132.61 47.5297 132.47 47.3597C132.33 47.1897 132.13 47.0597 131.87 46.9797C131.72 46.9297 131.44 46.9097 131.03 46.9097H130.47V46.9197ZM131.44 44.7497L132.25 46.2797H131.94L130.99 45.4497L130.01 46.2497H129.68L130.53 44.7397H131.44V44.7497Z" fill="white"/>
<path d="M135.76 46.6099L138.44 49.9799V47.6399C138.44 47.3099 138.39 47.0899 138.3 46.9799C138.17 46.8299 137.96 46.7499 137.65 46.7599V46.6099H139.45V46.7599C139.22 46.7899 139.07 46.8299 138.99 46.8699C138.91 46.9199 138.85 46.9899 138.81 47.0999C138.77 47.2099 138.74 47.3899 138.74 47.6399V52.1699H138.6L134.92 47.6399V51.0999C134.92 51.4099 134.99 51.6199 135.14 51.7299C135.28 51.8399 135.45 51.8899 135.63 51.8899H135.76V52.0399H133.83V51.8899C134.13 51.8899 134.34 51.8299 134.46 51.7099C134.58 51.5899 134.64 51.3799 134.64 51.0999V47.2599L134.52 47.1199C134.41 46.9799 134.3 46.8799 134.22 46.8399C134.13 46.7899 134 46.7699 133.84 46.7599V46.6099H135.77H135.76Z" fill="white"/>
<path d="M144.66 50.4998H142.74L142.51 51.0298C142.44 51.2098 142.4 51.3498 142.4 51.4698C142.4 51.6198 142.46 51.7398 142.58 51.8098C142.65 51.8498 142.83 51.8798 143.11 51.9098V52.0598H141.3V51.9098C141.49 51.8798 141.66 51.7998 141.78 51.6698C141.91 51.5398 142.06 51.2598 142.25 50.8498L144.2 46.5098H144.28L146.24 50.9698C146.43 51.3898 146.58 51.6598 146.7 51.7698C146.79 51.8498 146.92 51.8998 147.09 51.9098V52.0598H144.46V51.9098H144.57C144.78 51.9098 144.93 51.8798 145.01 51.8198C145.07 51.7798 145.1 51.7198 145.1 51.6298C145.1 51.5798 145.1 51.5298 145.08 51.4798C145.08 51.4598 145.03 51.3498 144.96 51.1798L144.67 50.4998H144.66ZM144.53 50.2098L143.72 48.3398L142.89 50.2098H144.54H144.53Z" fill="white"/>
<path d="M149.22 46.6099L151.9 49.9799V47.6399C151.9 47.3099 151.85 47.0899 151.76 46.9799C151.63 46.8299 151.42 46.7499 151.11 46.7599V46.6099H152.91V46.7599C152.68 46.7899 152.53 46.8299 152.45 46.8699C152.37 46.9199 152.31 46.9899 152.27 47.0999C152.23 47.2099 152.2 47.3899 152.2 47.6399V52.1699H152.06L148.38 47.6399V51.0999C148.38 51.4099 148.45 51.6199 148.59 51.7299C148.73 51.8399 148.9 51.8899 149.08 51.8899H149.21V52.0399H147.28V51.8899C147.58 51.8899 147.79 51.8299 147.91 51.7099C148.03 51.5899 148.09 51.3799 148.09 51.0999V47.2599L147.97 47.1199C147.85 46.9799 147.75 46.8799 147.66 46.8399C147.57 46.7899 147.45 46.7699 147.28 46.7599V46.6099H149.21H149.22Z" fill="white"/>
<path d="M155.36 49.4399V51.1199C155.36 51.3999 155.38 51.5699 155.41 51.6399C155.44 51.7099 155.5 51.7699 155.59 51.8199C155.68 51.8699 155.8 51.8999 155.95 51.8999H156.13V52.0499H153.29V51.8999H153.47C153.63 51.8999 153.76 51.8699 153.85 51.8199C153.92 51.7799 153.97 51.7199 154.01 51.6299C154.04 51.5699 154.05 51.3999 154.05 51.1199V47.5399C154.05 47.2599 154.04 47.0899 154.01 47.0199C153.98 46.9499 153.92 46.8899 153.83 46.8399C153.74 46.7899 153.62 46.7599 153.47 46.7599H153.29V46.6099H156.13V46.7599H155.95C155.79 46.7599 155.67 46.7899 155.57 46.8399C155.5 46.8799 155.45 46.9399 155.41 47.0299C155.38 47.0899 155.37 47.2599 155.37 47.5399V49.0799H157.29V47.5399C157.29 47.2599 157.28 47.0899 157.25 47.0199C157.22 46.9499 157.16 46.8899 157.07 46.8399C156.98 46.7899 156.86 46.7599 156.7 46.7599H156.52V46.6099H159.36V46.7599H159.18C159.02 46.7599 158.89 46.7899 158.8 46.8399C158.73 46.8799 158.68 46.9399 158.63 47.0299C158.6 47.0899 158.59 47.2599 158.59 47.5399V51.1199C158.59 51.3999 158.61 51.5699 158.63 51.6399C158.66 51.7099 158.72 51.7699 158.81 51.8199C158.9 51.8699 159.02 51.8999 159.17 51.8999H159.35V52.0499H156.51V51.8999H156.69C156.85 51.8999 156.98 51.8699 157.07 51.8199C157.14 51.7799 157.19 51.7199 157.23 51.6299C157.26 51.5699 157.27 51.3999 157.27 51.1199V49.4399H155.35H155.36Z" fill="white"/>
<path d="M31.42 1.62058C32.55 2.04058 33.17 3.15058 33.17 3.15058C33.17 3.15058 31.97 3.59058 30.84 3.17058C29.71 2.75058 29.09 1.64058 29.09 1.64058C29.09 1.64058 30.29 1.20058 31.42 1.62058Z" fill="white"/>
<path d="M36.83 31.5702C36.49 32.7602 36.88 33.8502 36.89 33.8502C36.89 33.8602 38.21 32.8502 38.47 31.5802C38.74 30.3202 38 29.4302 38.01 29.4302C38.01 29.4402 37.17 30.3902 36.83 31.5702Z" fill="white"/>
<path d="M39.15 34.29C37.76 34.6 36.87 33.81 36.87 33.82C36.89 33.82 38.12 32.85 39.38 32.5C40.66 32.16 41.68 32.62 41.68 32.63C41.7 32.63 40.55 33.98 39.14 34.29H39.15Z" fill="white"/>
<path d="M38.95 29.3904C38.87 30.5804 39.46 31.5504 39.47 31.5504C39.47 31.5604 40.52 30.3904 40.52 29.1304C40.52 27.8804 39.65 27.1504 39.66 27.1504C39.66 27.1604 39.04 28.2104 38.95 29.3904Z" fill="white"/>
<path d="M41.7 31.6104C40.43 32.1304 39.43 31.5204 39.44 31.5304C39.46 31.5304 40.43 30.4104 41.57 29.8704C42.73 29.3304 43.8 29.6004 43.8 29.6104C43.82 29.6104 42.98 31.1004 41.7 31.6204V31.6104Z" fill="white"/>
<path d="M40.56 26.9602C40.71 28.1202 41.47 28.9402 41.48 28.9402C41.48 28.9502 42.26 27.6502 42.03 26.4402C41.81 25.2402 40.82 24.6802 40.83 24.6802C40.83 24.6902 40.42 25.8102 40.56 26.9602Z" fill="white"/>
<path d="M43.63 28.6203C42.51 29.3303 41.43 28.9103 41.44 28.9203C41.45 28.9203 42.17 27.6803 43.18 26.9603C44.2 26.2403 45.29 26.3203 45.3 26.3303C45.31 26.3303 44.77 27.9003 43.64 28.6203H43.63Z" fill="white"/>
<path d="M41.66 24.3406C42.01 25.4306 42.91 26.1006 42.91 26.1006C42.91 26.1106 43.43 24.7206 42.99 23.5806C42.56 22.4506 41.5 22.0806 41.51 22.0806C41.51 22.0806 41.31 23.2606 41.66 24.3406Z" fill="white"/>
<path d="M44.94 25.4107C43.98 26.2907 42.86 26.0707 42.87 26.0807C42.88 26.0807 43.35 24.7607 44.2 23.8907C45.06 23.0207 46.14 22.9007 46.15 22.9107C46.16 22.9107 45.91 24.5307 44.94 25.4207V25.4107Z" fill="white"/>
<path d="M42.27 21.6002C42.8 22.6002 43.79 23.0902 43.8 23.0902C43.8 23.1002 44.06 21.6602 43.44 20.6202C42.83 19.5902 41.73 19.4202 41.74 19.4102C41.74 19.4102 41.74 20.6002 42.27 21.6002Z" fill="white"/>
<path d="M45.65 22.0602C44.87 23.0902 43.74 23.0702 43.75 23.0702C43.75 23.0702 43.99 21.7002 44.67 20.7002C45.36 19.6902 46.4 19.3902 46.4 19.3902C46.41 19.3802 46.44 21.0202 45.65 22.0602Z" fill="white"/>
<path d="M42.39 18.8105C43.08 19.7005 44.13 20.0105 44.13 20.0005C44.14 20.0005 44.14 18.5505 43.36 17.6405C42.59 16.7405 41.49 16.7605 41.5 16.7505C41.5 16.7505 41.7 17.9205 42.39 18.8105Z" fill="white"/>
<path d="M45.77 18.6706C45.18 19.8106 44.08 19.9906 44.09 20.0006C44.09 20.0006 44.09 18.6206 44.58 17.5106C45.08 16.4006 46.04 15.9106 46.05 15.9206C46.05 15.9106 46.37 17.5206 45.77 18.6706Z" fill="white"/>
<path d="M42.04 16.0404C42.87 16.8004 43.94 16.9104 43.94 16.9004C43.95 16.9004 43.71 15.4704 42.79 14.7104C41.88 13.9504 40.82 14.1604 40.82 14.1604C40.82 14.1604 41.22 15.2804 42.04 16.0404Z" fill="white"/>
<path d="M45.31 15.3106C44.93 16.5406 43.89 16.9106 43.89 16.9106C43.89 16.9006 43.65 15.5506 43.95 14.3706C44.25 13.1806 45.1 12.5406 45.11 12.5406C45.11 12.5306 45.69 14.0706 45.3 15.3106H45.31Z" fill="white"/>
<path d="M41.22 13.3705C42.16 13.9805 43.22 13.9005 43.22 13.8905C43.23 13.8905 42.75 12.5205 41.72 11.9205C40.7 11.3305 39.69 11.7205 39.7 11.7105C39.71 11.7105 40.29 12.7605 41.22 13.3605V13.3705Z" fill="white"/>
<path d="M44.3 12.0704C44.14 13.3604 43.18 13.9004 43.19 13.9004C43.19 13.8904 42.73 12.6004 42.81 11.3804C42.9 10.1504 43.61 9.3604 43.62 9.3604C43.62 9.3504 44.46 10.7704 44.3 12.0704Z" fill="white"/>
<path d="M39.95 10.8607C40.98 11.3007 42 11.0407 42 11.0307C42.01 11.0307 41.3 9.75071 40.18 9.34071C39.07 8.93071 38.15 9.49071 38.15 9.48071C38.16 9.48071 38.93 10.4207 39.94 10.8607H39.95Z" fill="white"/>
<path d="M42.73 9.04051C42.8 10.3405 41.97 11.0505 41.98 11.0505C41.98 11.0405 41.3 9.84051 41.15 8.61051C41.01 7.37051 41.56 6.46051 41.57 6.46051C41.57 6.45051 42.66 7.72051 42.73 9.03051V9.04051Z" fill="white"/>
<path d="M38.24 8.5906C39.33 8.8506 40.29 8.4106 40.29 8.4006C40.31 8.4006 39.36 7.2506 38.17 7.0306C36.99 6.8106 36.19 7.5306 36.19 7.5206C36.2 7.5206 37.15 8.3206 38.23 8.5806L38.24 8.5906Z" fill="white"/>
<path d="M40.62 6.30047C40.94 7.58047 40.25 8.43047 40.26 8.43047C40.26 8.42047 39.36 7.34047 38.98 6.15047C38.6 4.94047 38.96 3.95047 38.97 3.95047C38.97 3.93047 40.31 5.01047 40.63 6.31047L40.62 6.30047Z" fill="white"/>
<path d="M36.1 6.62043C37.24 6.69043 38.1 6.09043 38.1 6.08043C38.12 6.08043 36.95 5.10043 35.71 5.08043C34.49 5.06043 33.83 5.91043 33.83 5.91043C33.84 5.91043 34.97 6.54043 36.1 6.62043Z" fill="white"/>
<path d="M38 3.93047C38.58 5.15047 38.06 6.11047 38.07 6.11047C38.07 6.10047 36.97 5.18047 36.33 4.06047C35.69 2.93047 35.84 1.87047 35.85 1.87047C35.85 1.85047 37.42 2.69047 38 3.93047Z" fill="white"/>
<path d="M33.53 5.03016C34.7 4.91016 35.43 4.16016 35.43 4.16016C35.45 4.16016 34.07 3.38016 32.8 3.58016C31.55 3.77016 31.07 4.73016 31.06 4.72016C31.08 4.72016 32.37 5.15016 33.53 5.04016V5.03016Z" fill="white"/>
<path d="M34.87 2.04037C35.72 3.15037 35.4 4.20037 35.41 4.19037C35.41 4.18037 34.1 3.46037 33.2 2.45037C32.3 1.44037 32.2 0.370372 32.21 0.360372C32.21 0.340372 34.01 0.910372 34.87 2.03037V2.04037Z" fill="white"/>
<path d="M32.85 35.8803L32.78 35.6403C34.75 35.0403 36.56 34.0603 38.16 32.7303C39.72 31.4303 41.01 29.8503 41.99 28.0403C44.04 24.2803 44.56 19.8803 43.46 15.6503C42.56 12.1903 41.15 9.35025 39.28 7.22025C37.27 4.92025 34.77 3.50025 31.85 3.00025L31.89 2.76025C34.87 3.28025 37.42 4.73025 39.46 7.06025C41.36 9.23025 42.78 12.1003 43.69 15.6003C44.81 19.8803 44.28 24.3503 42.2 28.1703C41.2 30.0103 39.89 31.6103 38.31 32.9303C36.69 34.2903 34.85 35.2803 32.84 35.8903L32.85 35.8803Z" fill="white"/>
<path d="M14.98 1.46043C13.85 1.88043 13.23 2.99043 13.23 2.99043C13.23 2.99043 14.43 3.43043 15.56 3.01043C16.69 2.59043 17.31 1.48043 17.31 1.48043C17.31 1.48043 16.11 1.04043 14.98 1.46043Z" fill="white"/>
<path d="M9.57004 31.41C9.91004 32.6 9.52004 33.69 9.51004 33.69C9.51004 33.7 8.19004 32.69 7.93004 31.42C7.66004 30.16 8.40004 29.27 8.39004 29.27C8.39004 29.28 9.23004 30.23 9.57004 31.41Z" fill="white"/>
<path d="M7.26005 34.1298C8.65005 34.4398 9.54005 33.6498 9.54005 33.6598C9.52005 33.6598 8.29005 32.6898 7.03005 32.3398C5.75005 31.9898 4.73005 32.4598 4.73005 32.4698C4.71005 32.4698 5.86005 33.8198 7.27005 34.1298H7.26005Z" fill="white"/>
<path d="M7.45 29.2302C7.53 30.4202 6.94 31.3902 6.93 31.3902C6.93 31.4002 5.88 30.2302 5.88 28.9702C5.88 27.7202 6.75 26.9902 6.74 26.9902C6.74 27.0002 7.36 28.0502 7.45 29.2302Z" fill="white"/>
<path d="M4.70002 31.44C5.97002 31.96 6.97002 31.35 6.96002 31.36C6.94002 31.36 5.97002 30.24 4.83002 29.7C3.67002 29.16 2.60002 29.43 2.60002 29.44C2.58002 29.44 3.42002 30.93 4.70002 31.45V31.44Z" fill="white"/>
<path d="M5.85008 26.7903C5.70008 27.9503 4.94008 28.7703 4.93008 28.7703C4.93008 28.7803 4.15008 27.4803 4.38008 26.2703C4.60008 25.0703 5.59008 24.5103 5.58008 24.5103C5.58008 24.5203 5.99008 25.6403 5.85008 26.7903Z" fill="white"/>
<path d="M2.77005 28.4503C3.89005 29.1603 4.97005 28.7403 4.96005 28.7503C4.95005 28.7503 4.23005 27.5103 3.22005 26.7903C2.20005 26.0703 1.11005 26.1503 1.10005 26.1603C1.09005 26.1603 1.63005 27.7303 2.76005 28.4503H2.77005Z" fill="white"/>
<path d="M4.75006 24.1702C4.40006 25.2602 3.50006 25.9302 3.50006 25.9302C3.50006 25.9402 2.98006 24.5502 3.42006 23.4102C3.85006 22.2802 4.91006 21.9102 4.90006 21.9102C4.90006 21.9102 5.10006 23.0902 4.75006 24.1702Z" fill="white"/>
<path d="M1.46004 25.2403C2.42004 26.1203 3.54004 25.9003 3.53004 25.9103C3.52004 25.9103 3.05004 24.5903 2.20004 23.7203C1.34004 22.8503 0.260041 22.7303 0.250041 22.7403C0.240041 22.7403 0.490041 24.3603 1.46004 25.2503V25.2403Z" fill="white"/>
<path d="M4.14 21.4297C3.61 22.4297 2.62 22.9197 2.61 22.9197C2.61 22.9297 2.35 21.4897 2.97 20.4497C3.58 19.4197 4.68001 19.2497 4.67001 19.2397C4.67001 19.2397 4.67 20.4297 4.14 21.4297Z" fill="white"/>
<path d="M0.750025 21.9C1.53003 22.93 2.66003 22.91 2.65003 22.91C2.65003 22.91 2.41003 21.54 1.73003 20.54C1.04003 19.54 2.50945e-05 19.23 2.50945e-05 19.24C-0.00997491 19.23 -0.0399749 20.87 0.750025 21.91V21.9Z" fill="white"/>
<path d="M4.02001 18.6406C3.33001 19.5306 2.28001 19.8406 2.28001 19.8306C2.27001 19.8306 2.27001 18.3806 3.05001 17.4706C3.82001 16.5706 4.92001 16.5906 4.91001 16.5806C4.91001 16.5806 4.71001 17.7506 4.02001 18.6406Z" fill="white"/>
<path d="M0.630015 18.5104C1.22002 19.6504 2.32001 19.8304 2.31001 19.8404C2.31001 19.8404 2.31002 18.4604 1.82002 17.3504C1.32002 16.2404 0.360015 15.7504 0.350015 15.7604C0.350015 15.7504 0.030015 17.3604 0.630015 18.5104Z" fill="white"/>
<path d="M4.37002 15.8802C3.54002 16.6402 2.47002 16.7502 2.47002 16.7402C2.46002 16.7402 2.70002 15.3102 3.62002 14.5502C4.53002 13.7902 5.59002 14.0002 5.59002 14.0002C5.59002 14.0002 5.19002 15.1202 4.37002 15.8802Z" fill="white"/>
<path d="M1.09 15.1504C1.47 16.3804 2.51 16.7504 2.51 16.7504C2.51 16.7404 2.75 15.3904 2.45 14.2104C2.15 13.0204 1.3 12.3804 1.29 12.3804C1.29 12.3704 0.709997 13.9104 1.1 15.1504H1.09Z" fill="white"/>
<path d="M5.18002 13.2103C4.24002 13.8203 3.18002 13.7403 3.18002 13.7303C3.17002 13.7303 3.65002 12.3603 4.68002 11.7603C5.70002 11.1703 6.71002 11.5603 6.70002 11.5503C6.69002 11.5503 6.11002 12.6003 5.18002 13.2003V13.2103Z" fill="white"/>
<path d="M2.11005 11.9102C2.27005 13.2002 3.23005 13.7402 3.22005 13.7402C3.22005 13.7302 3.68005 12.4402 3.60005 11.2202C3.51005 9.99025 2.80005 9.20025 2.79005 9.20025C2.79005 9.19025 1.95005 10.6102 2.11005 11.9102Z" fill="white"/>
<path d="M6.45001 10.7001C5.42001 11.1401 4.40001 10.8801 4.40001 10.8701C4.39001 10.8701 5.10001 9.59006 6.22001 9.18006C7.33001 8.77006 8.25001 9.33006 8.25001 9.32006C8.24001 9.32006 7.47001 10.2601 6.46001 10.7001H6.45001Z" fill="white"/>
<path d="M3.68003 8.8701C3.61003 10.1701 4.44003 10.8801 4.43003 10.8801C4.43003 10.8701 5.11003 9.6701 5.26003 8.4401C5.40003 7.2001 4.85003 6.2901 4.84003 6.2901C4.84003 6.2801 3.75003 7.5501 3.68003 8.8601V8.8701Z" fill="white"/>
<path d="M8.15999 8.42019C7.06999 8.68019 6.10999 8.24019 6.10999 8.23019C6.08999 8.23019 7.03999 7.08019 8.22999 6.86019C9.40999 6.64019 10.21 7.36019 10.21 7.35019C10.2 7.35019 9.24999 8.15019 8.16999 8.41019L8.15999 8.42019Z" fill="white"/>
<path d="M5.78 6.13006C5.46 7.41006 6.15 8.26006 6.14 8.26006C6.14 8.25006 7.04 7.17006 7.42 5.98006C7.8 4.77006 7.44 3.78006 7.43 3.78006C7.43 3.76006 6.09 4.84006 5.77 6.14006L5.78 6.13006Z" fill="white"/>
<path d="M10.31 6.46027C9.17001 6.53027 8.31001 5.93027 8.31001 5.92027C8.29001 5.92027 9.46001 4.94027 10.7 4.92027C11.92 4.90027 12.58 5.75027 12.58 5.75027C12.57 5.75027 11.44 6.38027 10.31 6.46027Z" fill="white"/>
<path d="M8.41002 3.77031C7.83002 4.99031 8.35002 5.95031 8.34002 5.95031C8.34002 5.94031 9.44002 5.02031 10.08 3.90031C10.72 2.77031 10.57 1.71031 10.56 1.71031C10.56 1.69031 8.99002 2.53031 8.41002 3.77031Z" fill="white"/>
<path d="M12.87 4.86024C11.7 4.74024 10.97 3.99024 10.97 3.99024C10.95 3.99024 12.33 3.21024 13.6 3.41024C14.85 3.60024 15.33 4.56024 15.34 4.55024C15.32 4.55024 14.03 4.98024 12.87 4.87024V4.86024Z" fill="white"/>
<path d="M11.54 1.87022C10.69 2.98022 11.01 4.03022 11 4.02022C11 4.01022 12.31 3.29022 13.21 2.28022C14.11 1.27022 14.2 0.200216 14.19 0.200216C14.19 0.180216 12.39 0.750216 11.53 1.87022H11.54Z" fill="white"/>
<path d="M13.56 35.7103L13.63 35.4703C11.66 34.8703 9.85003 33.8903 8.25003 32.5603C6.69003 31.2603 5.40003 29.6803 4.42003 27.8703C2.37003 24.1103 1.85003 19.7103 2.95003 15.4803C3.85003 12.0203 5.26003 9.18033 7.13003 7.05033C9.14003 4.75033 11.64 3.33033 14.56 2.83033L14.52 2.59033C11.54 3.11033 8.99003 4.56033 6.95003 6.89033C5.05003 9.06033 3.63003 11.9303 2.72003 15.4303C1.60003 19.7103 2.13003 24.1803 4.21003 28.0003C5.21003 29.8403 6.52003 31.4403 8.10003 32.7603C9.72003 34.1203 11.56 35.1103 13.57 35.7203L13.56 35.7103Z" fill="white"/>
<path d="M23.12 39.1801C23.02 39.1801 22.93 39.1401 22.83 39.0801C21.72 38.4601 20.59 37.9401 19.49 37.4401C14.72 35.2401 10.21 33.1701 9.79004 24.0401V8.6001H36.34V24.2001C35.73 33.8501 31.36 35.6601 26.74 37.5701C25.64 38.0301 24.5 38.5001 23.38 39.0801C23.36 39.0901 23.34 39.1001 23.33 39.1001C23.28 39.1301 23.21 39.1701 23.11 39.1701M10.37 9.1801V24.0401C10.76 32.8101 14.92 34.7201 19.73 36.9401C20.83 37.4501 21.98 37.9701 23.1 38.6001C23.1 38.6001 23.1 38.6001 23.11 38.6001C23.11 38.6001 23.11 38.6001 23.12 38.6001C24.25 38.0101 25.4 37.5301 26.52 37.0701C31.17 35.1501 35.19 33.4901 35.76 24.2001V9.1901H10.36L10.37 9.1801Z" fill="white"/>
<path d="M36.15 36.4302C36.15 36.4302 37.64 36.9002 39.46 36.6302C39.46 36.6302 39.34 39.6902 40.59 41.5902C40.59 41.5902 36.97 42.4102 33.41 41.3902C30.23 40.4702 30.04 39.6402 30.03 39.1102L30.08 37.9302L36.16 36.4302H36.15Z" fill="white"/>
<path d="M29.9 36.0601L30.02 39.1301C30.02 39.1301 30.03 38.2401 31.52 38.5501C33.01 38.8601 33.62 40.3901 35.05 40.9801C36.48 41.5801 37.84 41.2901 37.57 40.3401L36.81 38.2701L29.89 36.0601H29.9Z" fill="white"/>
<path d="M22.59 36.6403C26.91 36.6403 36.69 37.2803 37.58 40.3403C37.58 40.3403 37.02 36.9103 36.91 36.2403C36.8 35.5803 36.71 34.6403 35.35 34.1803C34 33.7103 30.17 32.0703 22.59 32.0703V36.6403Z" fill="white"/>
<path d="M9.01001 36.4302C9.01001 36.4302 7.52001 36.9002 5.70001 36.6302C5.70001 36.6302 5.82001 39.6902 4.57001 41.5902C4.57001 41.5902 8.19001 42.4102 11.75 41.3902C14.93 40.4702 15.12 39.6402 15.13 39.1102L15.08 37.9302L9.00001 36.4302H9.01001Z" fill="white"/>
<path d="M15.27 36.0601L15.14 39.1301C15.14 39.1301 15.13 38.2401 13.64 38.5501C12.15 38.8601 11.54 40.3901 10.11 40.9801C8.69001 41.5801 7.32001 41.2901 7.59001 40.3401L8.35001 38.2701L15.27 36.0601Z" fill="white"/>
<path d="M22.59 36.6403C18.27 36.6403 8.49004 37.2803 7.60004 40.3403C7.60004 40.3403 8.16004 36.9103 8.27004 36.2403C8.38004 35.5803 8.48004 34.6403 9.83004 34.1803C11.18 33.7103 15.01 32.0703 22.59 32.0703L23.22 34.4003L22.59 36.6403Z" fill="white"/>
<path d="M4.58002 41.5903C5.34002 41.7303 6.11002 41.8103 6.88002 41.8503C7.65002 41.8903 8.43002 41.8803 9.20002 41.8203C9.97002 41.7603 10.74 41.6403 11.48 41.4503C11.85 41.3503 12.22 41.2403 12.58 41.1103C12.94 40.9703 13.29 40.8203 13.63 40.6503C13.97 40.4803 14.3 40.2903 14.59 40.0503C14.74 39.9303 14.87 39.8003 14.97 39.6503C15.07 39.5003 15.13 39.3303 15.1 39.1603C15.07 38.9903 14.94 38.8503 14.79 38.7603C14.64 38.6603 14.46 38.6003 14.27 38.5803C14.18 38.5703 14.08 38.5603 13.99 38.5703C13.95 38.5703 13.9 38.5703 13.85 38.5903C13.81 38.5903 13.76 38.6003 13.71 38.6103C13.52 38.6403 13.34 38.7003 13.17 38.7703C12.82 38.9103 12.51 39.1303 12.22 39.3703C11.93 39.6103 11.66 39.8803 11.41 40.1503C11.28 40.2803 11.16 40.4303 11.01 40.5603C10.87 40.6903 10.71 40.8103 10.55 40.9103C10.22 41.1203 9.85002 41.2703 9.47002 41.3603C9.09002 41.4503 8.68002 41.4803 8.28002 41.4003C8.08002 41.3603 7.88002 41.2903 7.72002 41.1503C7.64002 41.0803 7.58002 40.9903 7.54002 40.8903C7.52002 40.8403 7.51002 40.7903 7.51002 40.7303C7.51002 40.7203 7.51002 40.7003 7.51002 40.6903V40.6603C7.51002 40.6603 7.51002 40.6103 7.51002 40.5903C7.55002 40.2003 7.76002 39.8503 8.02002 39.5603C8.28002 39.2703 8.59002 39.0303 8.92002 38.8203C9.58002 38.4103 10.31 38.1303 11.05 37.9103C11.79 37.6903 12.55 37.5303 13.32 37.3803C14.84 37.1003 16.39 36.9103 17.93 36.7803C19.47 36.6503 21.02 36.5703 22.58 36.5703C24.13 36.5703 25.68 36.6503 27.23 36.7803C28.78 36.9103 30.32 37.1003 31.84 37.3803C32.6 37.5203 33.36 37.6903 34.1 37.9103C34.84 38.1303 35.57 38.4103 36.24 38.8203C36.57 39.0303 36.88 39.2603 37.13 39.5603C37.38 39.8503 37.59 40.2003 37.64 40.5903C37.64 40.6403 37.64 40.6903 37.64 40.7403C37.64 40.7903 37.63 40.8503 37.61 40.9003C37.57 41.0003 37.51 41.0903 37.43 41.1603C37.27 41.3003 37.07 41.3703 36.87 41.4103C36.47 41.4903 36.07 41.4603 35.68 41.3703C35.3 41.2803 34.93 41.1303 34.6 40.9203C34.43 40.8203 34.28 40.7003 34.14 40.5703C33.99 40.4403 33.87 40.3003 33.74 40.1603C33.48 39.8903 33.21 39.6203 32.93 39.3803C32.64 39.1403 32.33 38.9303 31.98 38.7803C31.81 38.7103 31.63 38.6503 31.44 38.6203C31.35 38.6003 31.25 38.5903 31.16 38.5803C31.07 38.5803 30.97 38.5803 30.88 38.5903C30.7 38.6203 30.52 38.6803 30.36 38.7803C30.21 38.8703 30.08 39.0103 30.05 39.1803C30.02 39.3503 30.08 39.5203 30.18 39.6703C30.28 39.8203 30.41 39.9503 30.56 40.0703C30.85 40.3103 31.18 40.5003 31.52 40.6703C31.86 40.8403 32.21 41.0003 32.57 41.1303C32.93 41.2603 33.3 41.3803 33.67 41.4703C34.42 41.6603 35.18 41.7803 35.95 41.8403C36.72 41.9003 37.49 41.9103 38.27 41.8703C39.04 41.8303 39.82 41.7503 40.57 41.6103C39.81 41.7603 39.04 41.8403 38.27 41.8903C37.5 41.9403 36.72 41.9403 35.95 41.8903C35.18 41.8403 34.41 41.7303 33.65 41.5403C33.27 41.4503 32.9 41.3403 32.54 41.2003C32.18 41.0703 31.82 40.9103 31.48 40.7403C31.13 40.5703 30.8 40.3803 30.5 40.1403C30.35 40.0203 30.21 39.8803 30.1 39.7203C29.99 39.5603 29.91 39.3603 29.95 39.1603C29.99 38.9603 30.14 38.7903 30.3 38.6903C30.47 38.5803 30.66 38.5203 30.86 38.4903C30.96 38.4703 31.06 38.4703 31.16 38.4703C31.26 38.4703 31.36 38.4903 31.46 38.5103C31.65 38.5403 31.84 38.6003 32.03 38.6703C32.39 38.8203 32.72 39.0403 33.01 39.2803C33.31 39.5203 33.57 39.7903 33.84 40.0603C33.97 40.1903 34.1 40.3403 34.24 40.4603C34.38 40.5803 34.53 40.7003 34.69 40.7903C35.01 40.9903 35.36 41.1303 35.73 41.2203C36.1 41.3003 36.48 41.3303 36.85 41.2603C37.03 41.2203 37.21 41.1603 37.33 41.0503C37.39 40.9903 37.44 40.9303 37.47 40.8503C37.48 40.8103 37.49 40.7803 37.49 40.7403C37.49 40.7003 37.49 40.6503 37.49 40.6103C37.45 40.2603 37.26 39.9403 37.01 39.6703C36.77 39.4003 36.47 39.1703 36.15 38.9703C35.51 38.5703 34.79 38.3003 34.06 38.0803C33.32 37.8703 32.57 37.7003 31.81 37.5603C30.29 37.2803 28.76 37.1003 27.22 36.9703C25.68 36.8403 24.13 36.7703 22.59 36.7703C21.04 36.7703 19.5 36.8503 17.96 36.9703C16.42 37.1003 14.88 37.2803 13.37 37.5603C12.61 37.7003 11.86 37.8603 11.12 38.0803C10.39 38.3003 9.67002 38.5703 9.03002 38.9703C8.71002 39.1703 8.41002 39.4003 8.17002 39.6703C7.93002 39.9403 7.74002 40.2703 7.69002 40.6103C7.69002 40.6303 7.69002 40.6503 7.69002 40.6703V40.7003C7.69002 40.7003 7.69002 40.7203 7.69002 40.7303C7.69002 40.7703 7.69002 40.8103 7.71002 40.8403C7.74002 40.9203 7.78002 40.9803 7.85002 41.0403C7.98002 41.1503 8.15002 41.2203 8.33002 41.2603C8.69002 41.3303 9.08002 41.3103 9.45002 41.2203C9.82002 41.1403 10.17 40.9903 10.49 40.8003C10.65 40.7003 10.8 40.5903 10.93 40.4603C11.07 40.3403 11.19 40.1903 11.33 40.0603C11.59 39.7903 11.86 39.5203 12.16 39.2803C12.46 39.0403 12.78 38.8203 13.15 38.6703C13.33 38.6003 13.52 38.5403 13.72 38.5103C13.77 38.5103 13.82 38.4903 13.87 38.4903C13.92 38.4903 13.97 38.4803 14.02 38.4703C14.12 38.4703 14.22 38.4703 14.32 38.4903C14.52 38.5203 14.71 38.5903 14.88 38.6903C15.05 38.8003 15.2 38.9603 15.24 39.1603C15.28 39.3603 15.2 39.5603 15.09 39.7203C14.98 39.8803 14.84 40.0203 14.69 40.1403C14.39 40.3803 14.05 40.5703 13.71 40.7403C13.36 40.9103 13.01 41.0603 12.65 41.1903C12.29 41.3203 11.92 41.4303 11.54 41.5303C10.79 41.7203 10.02 41.8303 9.24002 41.8803C8.47002 41.9303 7.69002 41.9303 6.92002 41.8803C6.15002 41.8303 5.37002 41.7503 4.62002 41.6003" fill="#262262"/>
<path d="M24.21 12.1401L29 24.3501C29.42 25.4601 29.71 26.1301 29.88 26.3701C30.31 27.0001 30.93 27.3101 31.74 27.3101V28.0101H25.23V27.3101C25.76 27.2501 26.15 27.1501 26.42 27.0301C26.84 26.8401 27.05 26.5501 27.05 26.1401C27.05 25.9401 27.01 25.7201 26.94 25.4801C26.82 25.1701 26.74 24.9501 26.69 24.8201L25.66 22.0801H19.65L19 23.8601C18.88 24.1901 18.76 24.5301 18.65 24.8901C18.54 25.2501 18.49 25.5401 18.49 25.7801C18.49 26.3101 18.69 26.6901 19.09 26.9301C19.4 27.1201 19.88 27.2501 20.53 27.3301V28.0301H14.25V27.3801L14.53 27.3401C15.1 27.2001 15.53 27.0201 15.8 26.8101C16.07 26.6001 16.35 26.2401 16.63 25.7401C16.91 25.2801 17.25 24.5401 17.65 23.5001C17.82 23.0601 17.99 22.6101 18.16 22.1601L22.02 12.1801H24.21V12.1401ZM19.97 21.0501H25.23L22.58 14.1101L19.97 21.0501Z" fill="white"/>
<path d="M16.87 33.64C16.65 33.7 16.59 33.75 16.5 34.11C16.43 34.4 16.23 35.24 16.07 36.01L15.9 36.04C15.56 35.44 15.1 34.65 14.9 34.31C14.75 34.06 14.69 34.02 14.47 34.03L14.45 33.9L15.5 33.73L15.52 33.86C15.27 33.94 15.28 33.98 15.35 34.12C15.5 34.38 15.88 35.05 16.06 35.36C16.17 34.82 16.26 34.39 16.31 34.07C16.35 33.82 16.35 33.77 16.05 33.78L16.03 33.65L16.85 33.52L16.87 33.65V33.64Z" fill="#262262"/>
<path d="M17.36 35.7904V35.6704C17.61 35.6204 17.64 35.5904 17.61 35.3004L17.48 33.9504C17.45 33.6504 17.42 33.6304 17.15 33.6304V33.5104L18.2 33.4004V33.5204C17.95 33.5704 17.92 33.5904 17.95 33.9004L18.08 35.2504C18.11 35.5504 18.14 35.5704 18.41 35.5704V35.6904L17.36 35.8004V35.7904Z" fill="#262262"/>
<path d="M20.55 34.9602C20.53 35.1202 20.48 35.4402 20.46 35.5502L18.65 35.6502V35.5302C18.94 35.4902 18.98 35.4702 18.96 35.1702L18.89 33.8102C18.87 33.5002 18.84 33.4902 18.59 33.4802V33.3602L20.25 33.2702C20.25 33.3302 20.29 33.5802 20.31 33.8002L20.18 33.8302C20.14 33.7102 20.09 33.5902 20.02 33.5302C19.96 33.4702 19.86 33.4502 19.66 33.4602H19.49C19.36 33.4802 19.35 33.4802 19.35 33.6002L19.39 34.3502H19.63C19.93 34.3202 19.97 34.3002 20.01 34.0502H20.14L20.18 34.7502H20.05C19.99 34.5102 19.94 34.4902 19.64 34.5102H19.4L19.43 35.1402C19.43 35.3102 19.46 35.3902 19.53 35.4202C19.6 35.4402 19.72 35.4502 19.85 35.4402C20.04 35.4402 20.16 35.4002 20.23 35.3102C20.3 35.2302 20.35 35.1102 20.41 34.9502L20.54 34.9702L20.55 34.9602ZM19.96 33.1602C19.79 33.1102 19.64 33.0402 19.48 32.9702C19.34 33.0502 19.19 33.1402 19.03 33.2102L18.97 33.1202C19.12 32.9802 19.29 32.8102 19.42 32.6602H19.53C19.68 32.7902 19.86 32.9402 20.02 33.0602L19.97 33.1502L19.96 33.1602ZM19.39 36.0702C19.39 35.9302 19.5 35.8102 19.63 35.8102C19.77 35.8102 19.89 35.9002 19.9 36.0402C19.9 36.1802 19.8 36.2902 19.65 36.3002C19.52 36.3002 19.39 36.2002 19.38 36.0702" fill="#262262"/>
<path d="M22.6601 33.8304C22.6201 33.6504 22.5701 33.5304 22.5001 33.4604C22.4401 33.4004 22.3501 33.3804 22.1401 33.3804H21.9801V35.0504C21.9801 35.3504 22.0201 35.3704 22.3301 35.3904V35.5104L21.1701 35.5204V35.4004C21.4701 35.3704 21.5001 35.3504 21.5001 35.0504V33.3804H21.3701C21.0701 33.3804 21.0101 33.4204 20.9601 33.4804C20.9001 33.5404 20.8601 33.6604 20.8101 33.8404H20.6801C20.6901 33.5804 20.7101 33.3304 20.7201 33.1404H20.8101C20.8601 33.2204 20.9101 33.2304 21.0101 33.2304H22.4401C22.5301 33.2104 22.5801 33.1904 22.6401 33.1304H22.7301C22.7301 33.2804 22.7501 33.5904 22.7701 33.8104H22.6401L22.6601 33.8304Z" fill="#262262"/>
<path d="M25.08 35.6103V35.4903C25.3 35.4703 25.32 35.4303 25.27 35.2703C25.24 35.1603 25.19 35.0103 25.15 34.8603L24.47 34.8303C24.42 34.9403 24.37 35.0603 24.32 35.2003C24.26 35.3703 24.26 35.4203 24.52 35.4603V35.5803L23.72 35.5403V35.4203C23.96 35.4003 24.01 35.3703 24.14 35.0803L24.97 33.3003L25.15 33.2603C25.34 33.8903 25.53 34.5203 25.72 35.1403C25.82 35.4603 25.86 35.5103 26.09 35.5503V35.6703L25.07 35.6203L25.08 35.6103ZM24.87 33.8903H24.86C24.75 34.1403 24.64 34.4003 24.54 34.6403L25.09 34.6703L24.87 33.8903Z" fill="#262262"/>
<path d="M28.93 33.7404C28.74 33.7404 28.66 33.7704 28.63 33.9304C28.61 34.0404 28.57 34.2004 28.54 34.5104L28.4 35.9104L28.23 35.8904L26.94 34.0004H26.93L26.85 34.7904C26.82 35.1004 26.82 35.2604 26.82 35.3704C26.82 35.5304 26.88 35.6004 27.14 35.6304V35.7504L26.26 35.6704V35.5504C26.47 35.5504 26.56 35.5104 26.59 35.3604C26.62 35.2504 26.65 35.0904 26.68 34.7804L26.75 34.0504C26.77 33.8204 26.78 33.7504 26.72 33.6604C26.66 33.5704 26.59 33.5304 26.44 33.5004V33.3804L27.1 33.4404L28.3 35.1204H28.31L28.37 34.5004C28.4 34.1904 28.4 34.0204 28.4 33.9204C28.4 33.7704 28.33 33.7004 28.07 33.6604V33.5404L28.94 33.6204V33.7404H28.93Z" fill="#262262"/>
<path d="M31.71 34.1404C31.43 34.1304 31.41 34.1404 31.37 34.4404L31.17 35.7904C31.13 36.0804 31.15 36.1104 31.41 36.1704L31.39 36.2904L30.32 36.1404L30.34 36.0204C30.62 36.0304 30.65 36.0204 30.7 35.7204L30.8 35.0704L29.84 34.9304L29.74 35.5804C29.7 35.8804 29.72 35.9004 29.98 35.9704L29.96 36.0904L28.91 35.9404L28.93 35.8204C29.19 35.8304 29.22 35.8204 29.27 35.5204L29.47 34.1804C29.51 33.8804 29.49 33.8604 29.22 33.7904L29.24 33.6704L30.29 33.8204L30.27 33.9404C30.02 33.9304 29.98 33.9404 29.94 34.2404L29.86 34.7504L30.82 34.8904L30.9 34.3804C30.94 34.0804 30.92 34.0604 30.66 34.0004L30.68 33.8804L31.73 34.0304L31.71 34.1504V34.1404Z" fill="#262262"/>
</g>
<defs>
<clipPath id="clip0_379_3452">
<rect width="159.71" height="53.6" fill="white" transform="translate(0 0.200195)"/>
</clipPath>
</defs>
</svg>
