<svg width="24" height="24" viewBox="0 0 24 24" fill="none" xmlns="http://www.w3.org/2000/svg">
<g id="mailbox">
<path id="icon" d="M7.26316 5.11765C4.3564 5.11765 2 7.4879 2 10.4118V16.7647C2 17.3495 2.47128 17.8235 3.05263 17.8235H20.9474C21.5287 17.8235 22 17.3495 22 16.7647V10.4118C22 8.94983 21.4109 7.62631 20.4585 6.66826M7.26316 5.11765H15.6842M7.26316 5.11765C10.1699 5.11765 12.5263 7.4879 12.5263 10.4118V16.7647C12.5263 17.3495 12.055 17.8235 11.4737 17.8235H7.26316M17.7895 3H16.7368C16.1555 3 15.6842 3.47405 15.6842 4.05882V9.35294M6.21053 13.5882H8.31579M9.42105 21V17.8235M14.5789 21V17.8235" stroke="#333333" stroke-width="1.5" stroke-linecap="round" stroke-linejoin="round"/>
</g>
</svg>
